<?xml version="1.0" encoding="UTF-8" standalone="no"?>
<svg width="1010px" height="771px" viewBox="0 0 1010 771" version="1.1" xmlns="http://www.w3.org/2000/svg" xmlns:xlink="http://www.w3.org/1999/xlink">
    <!-- Generator: Sketch 50.2 (55047) - http://www.bohemiancoding.com/sketch -->
    <title>3D Floor Plan@sndy</title>
    <desc>Created with Sketch.</desc>
    <defs></defs>
    <g id="Page-1" stroke="none" stroke-width="1" fill="none" fill-rule="evenodd">
        <g id="3D-Floor-Plan" fill-rule="nonzero">
            <path d="M275.33659,752.5 L275.27165,752.5 C270.579418,752.49472 266.77693,748.692232 266.77165,744 L266.77165,245 C266.77693,240.307768 270.579418,236.50528 275.27165,236.5 L695.27165,236.5 C699.9639,236.505236 703.766414,240.30775 703.77165,245 L703.77165,633 C703.766523,637.666545 700.003936,641.458322 695.33757,641.49951 L275.33659,752.5 Z" id="Shape" fill="#F2F2F2"></path>
            <path d="M585.77165,166 L390.77165,166 L390.77165,53 C390.777337,48.0317948 394.803445,44.0056871 399.77165,44 L576.77165,44 C581.739857,44.0056816 585.765968,48.0317926 585.77165,53 L585.77165,166 Z M392.77165,164 L583.77165,164 L583.77165,53 C583.767318,49.1358024 580.635848,46.0043317 576.77165,46 L399.77165,46 C395.907455,46.0043371 392.775987,49.1358047 392.77165,53 L392.77165,164 Z" id="Shape" fill="#3F3D56"></path>
            <path d="M446.27165,87 L530.27165,87 C534.689928,87 538.27165,90.581722 538.27165,95 L538.27165,215 L438.27165,215 L438.27165,95 C438.27165,90.581722 441.853372,87 446.27165,87 Z" id="Shape" fill="#E6E6E6"></path>
            <path d="M462.77165,46 L421.77165,46 L421.77165,5 C421.774808,2.23988526 424.011535,0.00315766657 426.77165,1.42108547e-14 L457.77165,1.42108547e-14 C460.531765,0.00315766657 462.768492,2.23988526 462.77165,5 L462.77165,46 Z M423.77165,44 L460.77165,44 L460.77165,5 C460.769842,3.34389511 459.427755,2.00180771 457.77165,2 L426.77165,2 C425.115545,2.00180771 423.773458,3.34389511 423.77165,5 L423.77165,44 Z" id="Shape" fill="#3F3D56"></path>
            <path d="M294.03142,174 L294.77165,175.46 C295.099691,176.089992 295.271193,176.789718 295.27165,177.5 L295.27165,217 L330.27165,217 L330.27165,177.5 C330.272112,176.789719 330.443613,176.089993 330.77165,175.46 L331.51189,174 L294.03142,174 Z M328.27165,177.5 L328.27165,215 L297.27165,215 L297.27165,177.5 C297.272199,176.99457 297.211704,176.490923 297.09148,176 L328.45183,176 C328.331598,176.490922 328.271099,176.994569 328.27165,177.5 Z M338.03142,174 L338.77165,175.46 C339.099691,176.089992 339.271193,176.789718 339.27165,177.5 L339.27165,217 L374.27165,217 L374.27165,177.5 C374.272112,176.789719 374.443613,176.089993 374.77165,175.46 L375.51189,174 L338.03142,174 Z M372.27165,177.5 L372.27165,215 L341.27165,215 L341.27165,177.5 C341.272199,176.99457 341.211704,176.490923 341.09148,176 L372.45183,176 C372.331598,176.490922 372.271099,176.994569 372.27165,177.5 Z M382.03142,174 L382.77165,175.46 C383.099691,176.089992 383.271193,176.789718 383.27165,177.5 L383.27165,217 L418.27165,217 L418.27165,177.5 C418.272112,176.789719 418.443613,176.089993 418.77165,175.46 L419.51189,174 L382.03142,174 Z M416.27165,177.5 L416.27165,215 L385.27165,215 L385.27165,177.5 C385.272199,176.99457 385.211704,176.490923 385.09148,176 L416.45183,176 C416.331598,176.490922 416.271099,176.994569 416.27165,177.5 Z M426.03142,174 L426.77165,175.46 C427.099691,176.089992 427.271193,176.789718 427.27165,177.5 L427.27165,217 L462.27165,217 L462.27165,177.5 C462.272112,176.789719 462.443613,176.089993 462.77165,175.46 L463.51189,174 L426.03142,174 Z M460.27165,177.5 L460.27165,215 L429.27165,215 L429.27165,177.5 C429.272199,176.99457 429.211704,176.490923 429.09148,176 L460.45183,176 C460.331598,176.490922 460.271099,176.994569 460.27165,177.5 Z M470.03142,174 L470.77165,175.46 C471.099691,176.089992 471.271193,176.789718 471.27165,177.5 L471.27165,217 L506.27165,217 L506.27165,177.5 C506.272112,176.789719 506.443613,176.089993 506.77165,175.46 L507.51189,174 L470.03142,174 Z M504.27165,177.5 L504.27165,215 L473.27165,215 L473.27165,177.5 C473.272199,176.99457 473.211704,176.490923 473.09148,176 L504.45183,176 C504.331598,176.490922 504.271099,176.994569 504.27165,177.5 Z M514.03142,174 L514.77165,175.46 C515.099691,176.089992 515.271193,176.789718 515.27165,177.5 L515.27165,217 L550.27165,217 L550.27165,177.5 C550.272112,176.789719 550.443613,176.089993 550.77165,175.46 L551.51189,174 L514.03142,174 Z M548.27165,177.5 L548.27165,215 L517.27165,215 L517.27165,177.5 C517.272199,176.99457 517.211704,176.490923 517.09148,176 L548.45183,176 C548.331598,176.490922 548.271099,176.994569 548.27165,177.5 Z M558.03142,174 L558.77165,175.46 C559.099691,176.089992 559.271193,176.789718 559.27165,177.5 L559.27165,217 L594.27165,217 L594.27165,177.5 C594.272112,176.789719 594.443613,176.089993 594.77165,175.46 L595.51189,174 L558.03142,174 Z M592.27165,177.5 L592.27165,215 L561.27165,215 L561.27165,177.5 C561.272199,176.99457 561.211704,176.490923 561.09148,176 L592.45183,176 C592.331598,176.490922 592.271099,176.994569 592.27165,177.5 Z M602.03142,174 L602.77165,175.46 C603.099691,176.089992 603.271193,176.789718 603.27165,177.5 L603.27165,217 L638.27165,217 L638.27165,177.5 C638.272112,176.789719 638.443613,176.089993 638.77165,175.46 L639.51189,174 L602.03142,174 Z M636.27165,177.5 L636.27165,215 L605.27165,215 L605.27165,177.5 C605.272199,176.99457 605.211704,176.490923 605.09148,176 L636.45183,176 C636.331598,176.490922 636.271099,176.994569 636.27165,177.5 Z M646.03142,174 L646.77165,175.46 C647.099691,176.089992 647.271193,176.789718 647.27165,177.5 L647.27165,217 L682.27165,217 L682.27165,177.5 C682.272112,176.789719 682.443613,176.089993 682.77165,175.46 L683.51189,174 L646.03142,174 Z M680.27165,177.5 L680.27165,215 L649.27165,215 L649.27165,177.5 C649.272199,176.99457 649.211704,176.490923 649.09148,176 L680.45183,176 C680.331598,176.490922 680.271099,176.994569 680.27165,177.5 Z M646.03142,174 L646.77165,175.46 C647.099691,176.089992 647.271193,176.789718 647.27165,177.5 L647.27165,217 L682.27165,217 L682.27165,177.5 C682.272112,176.789719 682.443613,176.089993 682.77165,175.46 L683.51189,174 L646.03142,174 Z M680.27165,177.5 L680.27165,215 L649.27165,215 L649.27165,177.5 C649.272199,176.99457 649.211704,176.490923 649.09148,176 L680.45183,176 C680.331598,176.490922 680.271099,176.994569 680.27165,177.5 Z M602.03142,174 L602.77165,175.46 C603.099691,176.089992 603.271193,176.789718 603.27165,177.5 L603.27165,217 L638.27165,217 L638.27165,177.5 C638.272112,176.789719 638.443613,176.089993 638.77165,175.46 L639.51189,174 L602.03142,174 Z M636.27165,177.5 L636.27165,215 L605.27165,215 L605.27165,177.5 C605.272199,176.99457 605.211704,176.490923 605.09148,176 L636.45183,176 C636.331598,176.490922 636.271099,176.994569 636.27165,177.5 Z M558.03142,174 L558.77165,175.46 C559.099691,176.089992 559.271193,176.789718 559.27165,177.5 L559.27165,217 L594.27165,217 L594.27165,177.5 C594.272112,176.789719 594.443613,176.089993 594.77165,175.46 L595.51189,174 L558.03142,174 Z M592.27165,177.5 L592.27165,215 L561.27165,215 L561.27165,177.5 C561.272199,176.99457 561.211704,176.490923 561.09148,176 L592.45183,176 C592.331598,176.490922 592.271099,176.994569 592.27165,177.5 Z M514.03142,174 L514.77165,175.46 C515.099691,176.089992 515.271193,176.789718 515.27165,177.5 L515.27165,217 L550.27165,217 L550.27165,177.5 C550.272112,176.789719 550.443613,176.089993 550.77165,175.46 L551.51189,174 L514.03142,174 Z M548.27165,177.5 L548.27165,215 L517.27165,215 L517.27165,177.5 C517.272199,176.99457 517.211704,176.490923 517.09148,176 L548.45183,176 C548.331598,176.490922 548.271099,176.994569 548.27165,177.5 Z M470.03142,174 L470.77165,175.46 C471.099691,176.089992 471.271193,176.789718 471.27165,177.5 L471.27165,217 L506.27165,217 L506.27165,177.5 C506.272112,176.789719 506.443613,176.089993 506.77165,175.46 L507.51189,174 L470.03142,174 Z M504.27165,177.5 L504.27165,215 L473.27165,215 L473.27165,177.5 C473.272199,176.99457 473.211704,176.490923 473.09148,176 L504.45183,176 C504.331598,176.490922 504.271099,176.994569 504.27165,177.5 Z M426.03142,174 L426.77165,175.46 C427.099691,176.089992 427.271193,176.789718 427.27165,177.5 L427.27165,217 L462.27165,217 L462.27165,177.5 C462.272112,176.789719 462.443613,176.089993 462.77165,175.46 L463.51189,174 L426.03142,174 Z M460.27165,177.5 L460.27165,215 L429.27165,215 L429.27165,177.5 C429.272199,176.99457 429.211704,176.490923 429.09148,176 L460.45183,176 C460.331598,176.490922 460.271099,176.994569 460.27165,177.5 Z M382.03142,174 L382.77165,175.46 C383.099691,176.089992 383.271193,176.789718 383.27165,177.5 L383.27165,217 L418.27165,217 L418.27165,177.5 C418.272112,176.789719 418.443613,176.089993 418.77165,175.46 L419.51189,174 L382.03142,174 Z M416.27165,177.5 L416.27165,215 L385.27165,215 L385.27165,177.5 C385.272199,176.99457 385.211704,176.490923 385.09148,176 L416.45183,176 C416.331598,176.490922 416.271099,176.994569 416.27165,177.5 Z M338.03142,174 L338.77165,175.46 C339.099691,176.089992 339.271193,176.789718 339.27165,177.5 L339.27165,217 L374.27165,217 L374.27165,177.5 C374.272112,176.789719 374.443613,176.089993 374.77165,175.46 L375.51189,174 L338.03142,174 Z M372.27165,177.5 L372.27165,215 L341.27165,215 L341.27165,177.5 C341.272199,176.99457 341.211704,176.490923 341.09148,176 L372.45183,176 C372.331598,176.490922 372.271099,176.994569 372.27165,177.5 Z M294.03142,174 L294.77165,175.46 C295.099691,176.089992 295.271193,176.789718 295.27165,177.5 L295.27165,217 L330.27165,217 L330.27165,177.5 C330.272112,176.789719 330.443613,176.089993 330.77165,175.46 L331.51189,174 L294.03142,174 Z M328.27165,177.5 L328.27165,215 L297.27165,215 L297.27165,177.5 C297.272199,176.99457 297.211704,176.490923 297.09148,176 L328.45183,176 C328.331598,176.490922 328.271099,176.994569 328.27165,177.5 Z M646.03142,174 L646.77165,175.46 C647.099691,176.089992 647.271193,176.789718 647.27165,177.5 L647.27165,217 L682.27165,217 L682.27165,177.5 C682.272112,176.789719 682.443613,176.089993 682.77165,175.46 L683.51189,174 L646.03142,174 Z M680.27165,177.5 L680.27165,215 L649.27165,215 L649.27165,177.5 C649.272199,176.99457 649.211704,176.490923 649.09148,176 L680.45183,176 C680.331598,176.490922 680.271099,176.994569 680.27165,177.5 Z M602.03142,174 L602.77165,175.46 C603.099691,176.089992 603.271193,176.789718 603.27165,177.5 L603.27165,217 L638.27165,217 L638.27165,177.5 C638.272112,176.789719 638.443613,176.089993 638.77165,175.46 L639.51189,174 L602.03142,174 Z M636.27165,177.5 L636.27165,215 L605.27165,215 L605.27165,177.5 C605.272199,176.99457 605.211704,176.490923 605.09148,176 L636.45183,176 C636.331598,176.490922 636.271099,176.994569 636.27165,177.5 Z M558.03142,174 L558.77165,175.46 C559.099691,176.089992 559.271193,176.789718 559.27165,177.5 L559.27165,217 L594.27165,217 L594.27165,177.5 C594.272112,176.789719 594.443613,176.089993 594.77165,175.46 L595.51189,174 L558.03142,174 Z M592.27165,177.5 L592.27165,215 L561.27165,215 L561.27165,177.5 C561.272199,176.99457 561.211704,176.490923 561.09148,176 L592.45183,176 C592.331598,176.490922 592.271099,176.994569 592.27165,177.5 Z M514.03142,174 L514.77165,175.46 C515.099691,176.089992 515.271193,176.789718 515.27165,177.5 L515.27165,217 L550.27165,217 L550.27165,177.5 C550.272112,176.789719 550.443613,176.089993 550.77165,175.46 L551.51189,174 L514.03142,174 Z M548.27165,177.5 L548.27165,215 L517.27165,215 L517.27165,177.5 C517.272199,176.99457 517.211704,176.490923 517.09148,176 L548.45183,176 C548.331598,176.490922 548.271099,176.994569 548.27165,177.5 Z M470.03142,174 L470.77165,175.46 C471.099691,176.089992 471.271193,176.789718 471.27165,177.5 L471.27165,217 L506.27165,217 L506.27165,177.5 C506.272112,176.789719 506.443613,176.089993 506.77165,175.46 L507.51189,174 L470.03142,174 Z M504.27165,177.5 L504.27165,215 L473.27165,215 L473.27165,177.5 C473.272199,176.99457 473.211704,176.490923 473.09148,176 L504.45183,176 C504.331598,176.490922 504.271099,176.994569 504.27165,177.5 Z M426.03142,174 L426.77165,175.46 C427.099691,176.089992 427.271193,176.789718 427.27165,177.5 L427.27165,217 L462.27165,217 L462.27165,177.5 C462.272112,176.789719 462.443613,176.089993 462.77165,175.46 L463.51189,174 L426.03142,174 Z M460.27165,177.5 L460.27165,215 L429.27165,215 L429.27165,177.5 C429.272199,176.99457 429.211704,176.490923 429.09148,176 L460.45183,176 C460.331598,176.490922 460.271099,176.994569 460.27165,177.5 Z M382.03142,174 L382.77165,175.46 C383.099691,176.089992 383.271193,176.789718 383.27165,177.5 L383.27165,217 L418.27165,217 L418.27165,177.5 C418.272112,176.789719 418.443613,176.089993 418.77165,175.46 L419.51189,174 L382.03142,174 Z M416.27165,177.5 L416.27165,215 L385.27165,215 L385.27165,177.5 C385.272199,176.99457 385.211704,176.490923 385.09148,176 L416.45183,176 C416.331598,176.490922 416.271099,176.994569 416.27165,177.5 Z M338.03142,174 L338.77165,175.46 C339.099691,176.089992 339.271193,176.789718 339.27165,177.5 L339.27165,217 L374.27165,217 L374.27165,177.5 C374.272112,176.789719 374.443613,176.089993 374.77165,175.46 L375.51189,174 L338.03142,174 Z M372.27165,177.5 L372.27165,215 L341.27165,215 L341.27165,177.5 C341.272199,176.99457 341.211704,176.490923 341.09148,176 L372.45183,176 C372.331598,176.490922 372.271099,176.994569 372.27165,177.5 Z M294.03142,174 L294.77165,175.46 C295.099691,176.089992 295.271193,176.789718 295.27165,177.5 L295.27165,217 L330.27165,217 L330.27165,177.5 C330.272112,176.789719 330.443613,176.089993 330.77165,175.46 L331.51189,174 L294.03142,174 Z M328.27165,177.5 L328.27165,215 L297.27165,215 L297.27165,177.5 C297.272199,176.99457 297.211704,176.490923 297.09148,176 L328.45183,176 C328.331598,176.490922 328.271099,176.994569 328.27165,177.5 Z M646.03142,174 L646.77165,175.46 C647.099691,176.089992 647.271193,176.789718 647.27165,177.5 L647.27165,217 L682.27165,217 L682.27165,177.5 C682.272112,176.789719 682.443613,176.089993 682.77165,175.46 L683.51189,174 L646.03142,174 Z M680.27165,177.5 L680.27165,215 L649.27165,215 L649.27165,177.5 C649.272199,176.99457 649.211704,176.490923 649.09148,176 L680.45183,176 C680.331598,176.490922 680.271099,176.994569 680.27165,177.5 Z M602.03142,174 L602.77165,175.46 C603.099691,176.089992 603.271193,176.789718 603.27165,177.5 L603.27165,217 L638.27165,217 L638.27165,177.5 C638.272112,176.789719 638.443613,176.089993 638.77165,175.46 L639.51189,174 L602.03142,174 Z M636.27165,177.5 L636.27165,215 L605.27165,215 L605.27165,177.5 C605.272199,176.99457 605.211704,176.490923 605.09148,176 L636.45183,176 C636.331598,176.490922 636.271099,176.994569 636.27165,177.5 Z M558.03142,174 L558.77165,175.46 C559.099691,176.089992 559.271193,176.789718 559.27165,177.5 L559.27165,217 L594.27165,217 L594.27165,177.5 C594.272112,176.789719 594.443613,176.089993 594.77165,175.46 L595.51189,174 L558.03142,174 Z M592.27165,177.5 L592.27165,215 L561.27165,215 L561.27165,177.5 C561.272199,176.99457 561.211704,176.490923 561.09148,176 L592.45183,176 C592.331598,176.490922 592.271099,176.994569 592.27165,177.5 Z M514.03142,174 L514.77165,175.46 C515.099691,176.089992 515.271193,176.789718 515.27165,177.5 L515.27165,217 L550.27165,217 L550.27165,177.5 C550.272112,176.789719 550.443613,176.089993 550.77165,175.46 L551.51189,174 L514.03142,174 Z M548.27165,177.5 L548.27165,215 L517.27165,215 L517.27165,177.5 C517.272199,176.99457 517.211704,176.490923 517.09148,176 L548.45183,176 C548.331598,176.490922 548.271099,176.994569 548.27165,177.5 Z M470.03142,174 L470.77165,175.46 C471.099691,176.089992 471.271193,176.789718 471.27165,177.5 L471.27165,217 L506.27165,217 L506.27165,177.5 C506.272112,176.789719 506.443613,176.089993 506.77165,175.46 L507.51189,174 L470.03142,174 Z M504.27165,177.5 L504.27165,215 L473.27165,215 L473.27165,177.5 C473.272199,176.99457 473.211704,176.490923 473.09148,176 L504.45183,176 C504.331598,176.490922 504.271099,176.994569 504.27165,177.5 Z M426.03142,174 L426.77165,175.46 C427.099691,176.089992 427.271193,176.789718 427.27165,177.5 L427.27165,217 L462.27165,217 L462.27165,177.5 C462.272112,176.789719 462.443613,176.089993 462.77165,175.46 L463.51189,174 L426.03142,174 Z M460.27165,177.5 L460.27165,215 L429.27165,215 L429.27165,177.5 C429.272199,176.99457 429.211704,176.490923 429.09148,176 L460.45183,176 C460.331598,176.490922 460.271099,176.994569 460.27165,177.5 Z M382.03142,174 L382.77165,175.46 C383.099691,176.089992 383.271193,176.789718 383.27165,177.5 L383.27165,217 L418.27165,217 L418.27165,177.5 C418.272112,176.789719 418.443613,176.089993 418.77165,175.46 L419.51189,174 L382.03142,174 Z M416.27165,177.5 L416.27165,215 L385.27165,215 L385.27165,177.5 C385.272199,176.99457 385.211704,176.490923 385.09148,176 L416.45183,176 C416.331598,176.490922 416.271099,176.994569 416.27165,177.5 Z M338.03142,174 L338.77165,175.46 C339.099691,176.089992 339.271193,176.789718 339.27165,177.5 L339.27165,217 L374.27165,217 L374.27165,177.5 C374.272112,176.789719 374.443613,176.089993 374.77165,175.46 L375.51189,174 L338.03142,174 Z M372.27165,177.5 L372.27165,215 L341.27165,215 L341.27165,177.5 C341.272199,176.99457 341.211704,176.490923 341.09148,176 L372.45183,176 C372.331598,176.490922 372.271099,176.994569 372.27165,177.5 Z M294.03142,174 L294.77165,175.46 C295.099691,176.089992 295.271193,176.789718 295.27165,177.5 L295.27165,217 L330.27165,217 L330.27165,177.5 C330.272112,176.789719 330.443613,176.089993 330.77165,175.46 L331.51189,174 L294.03142,174 Z M328.27165,177.5 L328.27165,215 L297.27165,215 L297.27165,177.5 C297.272199,176.99457 297.211704,176.490923 297.09148,176 L328.45183,176 C328.331598,176.490922 328.271099,176.994569 328.27165,177.5 Z M646.03142,174 L646.77165,175.46 C647.099691,176.089992 647.271193,176.789718 647.27165,177.5 L647.27165,217 L682.27165,217 L682.27165,177.5 C682.272112,176.789719 682.443613,176.089993 682.77165,175.46 L683.51189,174 L646.03142,174 Z M680.27165,177.5 L680.27165,215 L649.27165,215 L649.27165,177.5 C649.272199,176.99457 649.211704,176.490923 649.09148,176 L680.45183,176 C680.331598,176.490922 680.271099,176.994569 680.27165,177.5 Z M602.03142,174 L602.77165,175.46 C603.099691,176.089992 603.271193,176.789718 603.27165,177.5 L603.27165,217 L638.27165,217 L638.27165,177.5 C638.272112,176.789719 638.443613,176.089993 638.77165,175.46 L639.51189,174 L602.03142,174 Z M636.27165,177.5 L636.27165,215 L605.27165,215 L605.27165,177.5 C605.272199,176.99457 605.211704,176.490923 605.09148,176 L636.45183,176 C636.331598,176.490922 636.271099,176.994569 636.27165,177.5 Z M558.03142,174 L558.77165,175.46 C559.099691,176.089992 559.271193,176.789718 559.27165,177.5 L559.27165,217 L594.27165,217 L594.27165,177.5 C594.272112,176.789719 594.443613,176.089993 594.77165,175.46 L595.51189,174 L558.03142,174 Z M592.27165,177.5 L592.27165,215 L561.27165,215 L561.27165,177.5 C561.272199,176.99457 561.211704,176.490923 561.09148,176 L592.45183,176 C592.331598,176.490922 592.271099,176.994569 592.27165,177.5 Z M514.03142,174 L514.77165,175.46 C515.099691,176.089992 515.271193,176.789718 515.27165,177.5 L515.27165,217 L550.27165,217 L550.27165,177.5 C550.272112,176.789719 550.443613,176.089993 550.77165,175.46 L551.51189,174 L514.03142,174 Z M548.27165,177.5 L548.27165,215 L517.27165,215 L517.27165,177.5 C517.272199,176.99457 517.211704,176.490923 517.09148,176 L548.45183,176 C548.331598,176.490922 548.271099,176.994569 548.27165,177.5 Z M470.03142,174 L470.77165,175.46 C471.099691,176.089992 471.271193,176.789718 471.27165,177.5 L471.27165,217 L506.27165,217 L506.27165,177.5 C506.272112,176.789719 506.443613,176.089993 506.77165,175.46 L507.51189,174 L470.03142,174 Z M504.27165,177.5 L504.27165,215 L473.27165,215 L473.27165,177.5 C473.272199,176.99457 473.211704,176.490923 473.09148,176 L504.45183,176 C504.331598,176.490922 504.271099,176.994569 504.27165,177.5 Z M426.03142,174 L426.77165,175.46 C427.099691,176.089992 427.271193,176.789718 427.27165,177.5 L427.27165,217 L462.27165,217 L462.27165,177.5 C462.272112,176.789719 462.443613,176.089993 462.77165,175.46 L463.51189,174 L426.03142,174 Z M460.27165,177.5 L460.27165,215 L429.27165,215 L429.27165,177.5 C429.272199,176.99457 429.211704,176.490923 429.09148,176 L460.45183,176 C460.331598,176.490922 460.271099,176.994569 460.27165,177.5 Z M382.03142,174 L382.77165,175.46 C383.099691,176.089992 383.271193,176.789718 383.27165,177.5 L383.27165,217 L418.27165,217 L418.27165,177.5 C418.272112,176.789719 418.443613,176.089993 418.77165,175.46 L419.51189,174 L382.03142,174 Z M416.27165,177.5 L416.27165,215 L385.27165,215 L385.27165,177.5 C385.272199,176.99457 385.211704,176.490923 385.09148,176 L416.45183,176 C416.331598,176.490922 416.271099,176.994569 416.27165,177.5 Z M338.03142,174 L338.77165,175.46 C339.099691,176.089992 339.271193,176.789718 339.27165,177.5 L339.27165,217 L374.27165,217 L374.27165,177.5 C374.272112,176.789719 374.443613,176.089993 374.77165,175.46 L375.51189,174 L338.03142,174 Z M372.27165,177.5 L372.27165,215 L341.27165,215 L341.27165,177.5 C341.272199,176.99457 341.211704,176.490923 341.09148,176 L372.45183,176 C372.331598,176.490922 372.271099,176.994569 372.27165,177.5 Z M294.03142,174 L294.77165,175.46 C295.099691,176.089992 295.271193,176.789718 295.27165,177.5 L295.27165,217 L330.27165,217 L330.27165,177.5 C330.272112,176.789719 330.443613,176.089993 330.77165,175.46 L331.51189,174 L294.03142,174 Z M328.27165,177.5 L328.27165,215 L297.27165,215 L297.27165,177.5 C297.272199,176.99457 297.211704,176.490923 297.09148,176 L328.45183,176 C328.331598,176.490922 328.271099,176.994569 328.27165,177.5 Z M646.03142,174 L646.77165,175.46 C647.099691,176.089992 647.271193,176.789718 647.27165,177.5 L647.27165,217 L682.27165,217 L682.27165,177.5 C682.272112,176.789719 682.443613,176.089993 682.77165,175.46 L683.51189,174 L646.03142,174 Z M680.27165,177.5 L680.27165,215 L649.27165,215 L649.27165,177.5 C649.272199,176.99457 649.211704,176.490923 649.09148,176 L680.45183,176 C680.331598,176.490922 680.271099,176.994569 680.27165,177.5 Z M602.77165,175.46 C603.099691,176.089992 603.271193,176.789718 603.27165,177.5 L603.27165,217 L638.27165,217 L638.27165,177.5 C638.272112,176.789719 638.443613,176.089993 638.77165,175.46 L639.51189,174 L602.03142,174 L602.77165,175.46 Z M636.45183,176 C636.331598,176.490922 636.271099,176.994569 636.27165,177.5 L636.27165,215 L605.27165,215 L605.27165,177.5 C605.272199,176.99457 605.211704,176.490923 605.09148,176 L636.45183,176 Z M558.77165,175.46 C559.099691,176.089992 559.271193,176.789718 559.27165,177.5 L559.27165,217 L594.27165,217 L594.27165,177.5 C594.272112,176.789719 594.443613,176.089993 594.77165,175.46 L595.51189,174 L558.03142,174 L558.77165,175.46 Z M592.45183,176 C592.331598,176.490922 592.271099,176.994569 592.27165,177.5 L592.27165,215 L561.27165,215 L561.27165,177.5 C561.272199,176.99457 561.211704,176.490923 561.09148,176 L592.45183,176 Z M514.77165,175.46 C515.099691,176.089992 515.271193,176.789718 515.27165,177.5 L515.27165,217 L550.27165,217 L550.27165,177.5 C550.272112,176.789719 550.443613,176.089993 550.77165,175.46 L551.51189,174 L514.03142,174 L514.77165,175.46 Z M548.45183,176 C548.331598,176.490922 548.271099,176.994569 548.27165,177.5 L548.27165,215 L517.27165,215 L517.27165,177.5 C517.272199,176.99457 517.211704,176.490923 517.09148,176 L548.45183,176 Z M470.77165,175.46 C471.099691,176.089992 471.271193,176.789718 471.27165,177.5 L471.27165,217 L506.27165,217 L506.27165,177.5 C506.272112,176.789719 506.443613,176.089993 506.77165,175.46 L507.51189,174 L470.03142,174 L470.77165,175.46 Z M504.45183,176 C504.331598,176.490922 504.271099,176.994569 504.27165,177.5 L504.27165,215 L473.27165,215 L473.27165,177.5 C473.272199,176.99457 473.211704,176.490923 473.09148,176 L504.45183,176 Z M426.77165,175.46 C427.099691,176.089992 427.271193,176.789718 427.27165,177.5 L427.27165,217 L462.27165,217 L462.27165,177.5 C462.272112,176.789719 462.443613,176.089993 462.77165,175.46 L463.51189,174 L426.03142,174 L426.77165,175.46 Z M460.45183,176 C460.331598,176.490922 460.271099,176.994569 460.27165,177.5 L460.27165,215 L429.27165,215 L429.27165,177.5 C429.272199,176.99457 429.211704,176.490923 429.09148,176 L460.45183,176 Z M382.77165,175.46 C383.099691,176.089992 383.271193,176.789718 383.27165,177.5 L383.27165,217 L418.27165,217 L418.27165,177.5 C418.272112,176.789719 418.443613,176.089993 418.77165,175.46 L419.51189,174 L382.03142,174 L382.77165,175.46 Z M416.45183,176 C416.331598,176.490922 416.271099,176.994569 416.27165,177.5 L416.27165,215 L385.27165,215 L385.27165,177.5 C385.272199,176.99457 385.211704,176.490923 385.09148,176 L416.45183,176 Z M338.77165,175.46 C339.099691,176.089992 339.271193,176.789718 339.27165,177.5 L339.27165,217 L374.27165,217 L374.27165,177.5 C374.272112,176.789719 374.443613,176.089993 374.77165,175.46 L375.51189,174 L338.03142,174 L338.77165,175.46 Z M372.45183,176 C372.331598,176.490922 372.271099,176.994569 372.27165,177.5 L372.27165,215 L341.27165,215 L341.27165,177.5 C341.272199,176.99457 341.211704,176.490923 341.09148,176 L372.45183,176 Z M294.77165,175.46 C295.099691,176.089992 295.271193,176.789718 295.27165,177.5 L295.27165,217 L330.27165,217 L330.27165,177.5 C330.272112,176.789719 330.443613,176.089993 330.77165,175.46 L331.51189,174 L294.03142,174 L294.77165,175.46 Z M328.45183,176 C328.331598,176.490922 328.271099,176.994569 328.27165,177.5 L328.27165,215 L297.27165,215 L297.27165,177.5 C297.272199,176.99457 297.211704,176.490923 297.09148,176 L328.45183,176 Z M646.77165,175.46 C647.099691,176.089992 647.271193,176.789718 647.27165,177.5 L647.27165,217 L682.27165,217 L682.27165,177.5 C682.272112,176.789719 682.443613,176.089993 682.77165,175.46 L683.51189,174 L646.03142,174 L646.77165,175.46 Z M680.45183,176 C680.331598,176.490922 680.271099,176.994569 680.27165,177.5 L680.27165,215 L649.27165,215 L649.27165,177.5 C649.272199,176.99457 649.211704,176.490923 649.09148,176 L680.45183,176 Z M602.77165,175.46 C603.099691,176.089992 603.271193,176.789718 603.27165,177.5 L603.27165,217 L638.27165,217 L638.27165,177.5 C638.272112,176.789719 638.443613,176.089993 638.77165,175.46 L639.51189,174 L602.03142,174 L602.77165,175.46 Z M636.45183,176 C636.331598,176.490922 636.271099,176.994569 636.27165,177.5 L636.27165,215 L605.27165,215 L605.27165,177.5 C605.272199,176.99457 605.211704,176.490923 605.09148,176 L636.45183,176 Z M558.77165,175.46 C559.099691,176.089992 559.271193,176.789718 559.27165,177.5 L559.27165,217 L594.27165,217 L594.27165,177.5 C594.272112,176.789719 594.443613,176.089993 594.77165,175.46 L595.51189,174 L558.03142,174 L558.77165,175.46 Z M592.45183,176 C592.331598,176.490922 592.271099,176.994569 592.27165,177.5 L592.27165,215 L561.27165,215 L561.27165,177.5 C561.272199,176.99457 561.211704,176.490923 561.09148,176 L592.45183,176 Z M514.77165,175.46 C515.099691,176.089992 515.271193,176.789718 515.27165,177.5 L515.27165,217 L550.27165,217 L550.27165,177.5 C550.272112,176.789719 550.443613,176.089993 550.77165,175.46 L551.51189,174 L514.03142,174 L514.77165,175.46 Z M548.45183,176 C548.331598,176.490922 548.271099,176.994569 548.27165,177.5 L548.27165,215 L517.27165,215 L517.27165,177.5 C517.272199,176.99457 517.211704,176.490923 517.09148,176 L548.45183,176 Z M470.77165,175.46 C471.099691,176.089992 471.271193,176.789718 471.27165,177.5 L471.27165,217 L506.27165,217 L506.27165,177.5 C506.272112,176.789719 506.443613,176.089993 506.77165,175.46 L507.51189,174 L470.03142,174 L470.77165,175.46 Z M504.45183,176 C504.331598,176.490922 504.271099,176.994569 504.27165,177.5 L504.27165,215 L473.27165,215 L473.27165,177.5 C473.272199,176.99457 473.211704,176.490923 473.09148,176 L504.45183,176 Z M426.77165,175.46 C427.099691,176.089992 427.271193,176.789718 427.27165,177.5 L427.27165,217 L462.27165,217 L462.27165,177.5 C462.272112,176.789719 462.443613,176.089993 462.77165,175.46 L463.51189,174 L426.03142,174 L426.77165,175.46 Z M460.45183,176 C460.331598,176.490922 460.271099,176.994569 460.27165,177.5 L460.27165,215 L429.27165,215 L429.27165,177.5 C429.272199,176.99457 429.211704,176.490923 429.09148,176 L460.45183,176 Z M382.77165,175.46 C383.099691,176.089992 383.271193,176.789718 383.27165,177.5 L383.27165,217 L418.27165,217 L418.27165,177.5 C418.272112,176.789719 418.443613,176.089993 418.77165,175.46 L419.51189,174 L382.03142,174 L382.77165,175.46 Z M416.45183,176 C416.331598,176.490922 416.271099,176.994569 416.27165,177.5 L416.27165,215 L385.27165,215 L385.27165,177.5 C385.272199,176.99457 385.211704,176.490923 385.09148,176 L416.45183,176 Z M338.77165,175.46 C339.099691,176.089992 339.271193,176.789718 339.27165,177.5 L339.27165,217 L374.27165,217 L374.27165,177.5 C374.272112,176.789719 374.443613,176.089993 374.77165,175.46 L375.51189,174 L338.03142,174 L338.77165,175.46 Z M372.45183,176 C372.331598,176.490922 372.271099,176.994569 372.27165,177.5 L372.27165,215 L341.27165,215 L341.27165,177.5 C341.272199,176.99457 341.211704,176.490923 341.09148,176 L372.45183,176 Z M294.77165,175.46 C295.099691,176.089992 295.271193,176.789718 295.27165,177.5 L295.27165,217 L330.27165,217 L330.27165,177.5 C330.272112,176.789719 330.443613,176.089993 330.77165,175.46 L331.51189,174 L294.03142,174 L294.77165,175.46 Z M328.45183,176 C328.331598,176.490922 328.271099,176.994569 328.27165,177.5 L328.27165,215 L297.27165,215 L297.27165,177.5 C297.272199,176.99457 297.211704,176.490923 297.09148,176 L328.45183,176 Z M722.27165,223 L710.35173,223 C709.0012,218.274021 704.686797,215.011737 699.77165,215 L693.27165,215 L693.27165,177.5 C693.274291,176.694988 693.121428,175.897042 692.82146,175.15 C695.150779,173.778354 696.272577,171.0164 695.559388,168.409006 C694.8462,165.801613 692.474818,163.995132 689.77165,164 L287.77165,164 C285.068475,163.99512 282.697082,165.801602 281.983893,168.409003 C281.270705,171.016405 282.392516,173.778365 284.72185,175.15 C284.421879,175.897041 284.269013,176.694987 284.27165,177.5 L284.27165,215 L277.77165,215 C272.856507,215.011742 268.542109,218.274025 267.19158,223 L254.27165,223 C249.304186,223.007473 245.279123,227.032536 245.27165,232 L245.27165,760 C245.282419,764.966095 249.305555,768.989231 254.27165,769 L722.27165,769 C727.239223,768.992791 731.264441,764.967573 731.27165,760 L731.27165,232 C731.264177,227.032536 727.239114,223.007473 722.27165,223 Z M729.27165,760 C729.268266,762.926577 727.44588,765.542622 724.70183,766.56 C723.925889,766.855471 723.10193,767.004654 722.27165,767 L254.27165,767 C253.441373,767.004653 252.617417,766.85547 251.84148,766.56 C249.097426,765.542625 247.275036,762.92658 247.27165,760 L247.27165,232 C247.275943,228.135786 250.407436,225.004293 254.27165,225 L268.79165,225 L268.95181,224.2 C269.818434,220.015824 273.498665,217.011493 277.77163,217 L286.27163,217 L286.27163,177.5 C286.271936,176.686245 286.493186,175.887843 286.91177,175.19 L287.5314,174.16 L286.40152,173.74 C284.578547,173.079226 283.494693,171.203356 283.83268,169.294006 C284.170667,167.384656 285.832603,165.994837 287.77163,166 L689.77163,166 C691.710659,165.994832 693.3726,167.38465 693.71059,169.294001 C694.048579,171.203352 692.964724,173.079225 691.14175,173.74 L690.01187,174.16 L690.6315,175.19 C691.0503,175.88775 691.271564,176.686214 691.27163,177.5 L691.27163,217 L699.77163,217 C704.044654,217.011335 707.724975,220.015736 708.59146,224.2 L708.75161,225 L722.27161,225 C726.135826,225.004288 729.267322,228.135784 729.27161,232 L729.27165,760 Z M294.03142,174 L294.77165,175.46 C295.099691,176.089992 295.271193,176.789718 295.27165,177.5 L295.27165,217 L330.27165,217 L330.27165,177.5 C330.272112,176.789719 330.443613,176.089993 330.77165,175.46 L331.51189,174 L294.03142,174 Z M328.27165,177.5 L328.27165,215 L297.27165,215 L297.27165,177.5 C297.272199,176.99457 297.211704,176.490923 297.09148,176 L328.45183,176 C328.331598,176.490922 328.271099,176.994569 328.27165,177.5 Z M338.03142,174 L338.77165,175.46 C339.099691,176.089992 339.271193,176.789718 339.27165,177.5 L339.27165,217 L374.27165,217 L374.27165,177.5 C374.272112,176.789719 374.443613,176.089993 374.77165,175.46 L375.51189,174 L338.03142,174 Z M372.27165,177.5 L372.27165,215 L341.27165,215 L341.27165,177.5 C341.272199,176.99457 341.211704,176.490923 341.09148,176 L372.45183,176 C372.331598,176.490922 372.271099,176.994569 372.27165,177.5 Z M382.03142,174 L382.77165,175.46 C383.099691,176.089992 383.271193,176.789718 383.27165,177.5 L383.27165,217 L418.27165,217 L418.27165,177.5 C418.272112,176.789719 418.443613,176.089993 418.77165,175.46 L419.51189,174 L382.03142,174 Z M416.27165,177.5 L416.27165,215 L385.27165,215 L385.27165,177.5 C385.272199,176.99457 385.211704,176.490923 385.09148,176 L416.45183,176 C416.331598,176.490922 416.271099,176.994569 416.27165,177.5 Z M426.03142,174 L426.77165,175.46 C427.099691,176.089992 427.271193,176.789718 427.27165,177.5 L427.27165,217 L462.27165,217 L462.27165,177.5 C462.272112,176.789719 462.443613,176.089993 462.77165,175.46 L463.51189,174 L426.03142,174 Z M460.27165,177.5 L460.27165,215 L429.27165,215 L429.27165,177.5 C429.272199,176.99457 429.211704,176.490923 429.09148,176 L460.45183,176 C460.331598,176.490922 460.271099,176.994569 460.27165,177.5 Z M470.03142,174 L470.77165,175.46 C471.099691,176.089992 471.271193,176.789718 471.27165,177.5 L471.27165,217 L506.27165,217 L506.27165,177.5 C506.272112,176.789719 506.443613,176.089993 506.77165,175.46 L507.51189,174 L470.03142,174 Z M504.27165,177.5 L504.27165,215 L473.27165,215 L473.27165,177.5 C473.272199,176.99457 473.211704,176.490923 473.09148,176 L504.45183,176 C504.331598,176.490922 504.271099,176.994569 504.27165,177.5 Z M514.03142,174 L514.77165,175.46 C515.099691,176.089992 515.271193,176.789718 515.27165,177.5 L515.27165,217 L550.27165,217 L550.27165,177.5 C550.272112,176.789719 550.443613,176.089993 550.77165,175.46 L551.51189,174 L514.03142,174 Z M548.27165,177.5 L548.27165,215 L517.27165,215 L517.27165,177.5 C517.272199,176.99457 517.211704,176.490923 517.09148,176 L548.45183,176 C548.331598,176.490922 548.271099,176.994569 548.27165,177.5 Z M558.03142,174 L558.77165,175.46 C559.099691,176.089992 559.271193,176.789718 559.27165,177.5 L559.27165,217 L594.27165,217 L594.27165,177.5 C594.272112,176.789719 594.443613,176.089993 594.77165,175.46 L595.51189,174 L558.03142,174 Z M592.27165,177.5 L592.27165,215 L561.27165,215 L561.27165,177.5 C561.272199,176.99457 561.211704,176.490923 561.09148,176 L592.45183,176 C592.331598,176.490922 592.271099,176.994569 592.27165,177.5 Z M602.03142,174 L602.77165,175.46 C603.099691,176.089992 603.271193,176.789718 603.27165,177.5 L603.27165,217 L638.27165,217 L638.27165,177.5 C638.272112,176.789719 638.443613,176.089993 638.77165,175.46 L639.51189,174 L602.03142,174 Z M636.27165,177.5 L636.27165,215 L605.27165,215 L605.27165,177.5 C605.272199,176.99457 605.211704,176.490923 605.09148,176 L636.45183,176 C636.331598,176.490922 636.271099,176.994569 636.27165,177.5 Z M646.03142,174 L646.77165,175.46 C647.099691,176.089992 647.271193,176.789718 647.27165,177.5 L647.27165,217 L682.27165,217 L682.27165,177.5 C682.272112,176.789719 682.443613,176.089993 682.77165,175.46 L683.51189,174 L646.03142,174 Z M680.27165,177.5 L680.27165,215 L649.27165,215 L649.27165,177.5 C649.272199,176.99457 649.211704,176.490923 649.09148,176 L680.45183,176 C680.331598,176.490922 680.271099,176.994569 680.27165,177.5 Z M294.03142,174 L294.77165,175.46 C295.099691,176.089992 295.271193,176.789718 295.27165,177.5 L295.27165,217 L330.27165,217 L330.27165,177.5 C330.272112,176.789719 330.443613,176.089993 330.77165,175.46 L331.51189,174 L294.03142,174 Z M328.27165,177.5 L328.27165,215 L297.27165,215 L297.27165,177.5 C297.272199,176.99457 297.211704,176.490923 297.09148,176 L328.45183,176 C328.331598,176.490922 328.271099,176.994569 328.27165,177.5 Z M338.03142,174 L338.77165,175.46 C339.099691,176.089992 339.271193,176.789718 339.27165,177.5 L339.27165,217 L374.27165,217 L374.27165,177.5 C374.272112,176.789719 374.443613,176.089993 374.77165,175.46 L375.51189,174 L338.03142,174 Z M372.27165,177.5 L372.27165,215 L341.27165,215 L341.27165,177.5 C341.272199,176.99457 341.211704,176.490923 341.09148,176 L372.45183,176 C372.331598,176.490922 372.271099,176.994569 372.27165,177.5 Z M382.03142,174 L382.77165,175.46 C383.099691,176.089992 383.271193,176.789718 383.27165,177.5 L383.27165,217 L418.27165,217 L418.27165,177.5 C418.272112,176.789719 418.443613,176.089993 418.77165,175.46 L419.51189,174 L382.03142,174 Z M416.27165,177.5 L416.27165,215 L385.27165,215 L385.27165,177.5 C385.272199,176.99457 385.211704,176.490923 385.09148,176 L416.45183,176 C416.331598,176.490922 416.271099,176.994569 416.27165,177.5 Z M426.03142,174 L426.77165,175.46 C427.099691,176.089992 427.271193,176.789718 427.27165,177.5 L427.27165,217 L462.27165,217 L462.27165,177.5 C462.272112,176.789719 462.443613,176.089993 462.77165,175.46 L463.51189,174 L426.03142,174 Z M460.27165,177.5 L460.27165,215 L429.27165,215 L429.27165,177.5 C429.272199,176.99457 429.211704,176.490923 429.09148,176 L460.45183,176 C460.331598,176.490922 460.271099,176.994569 460.27165,177.5 Z M470.03142,174 L470.77165,175.46 C471.099691,176.089992 471.271193,176.789718 471.27165,177.5 L471.27165,217 L506.27165,217 L506.27165,177.5 C506.272112,176.789719 506.443613,176.089993 506.77165,175.46 L507.51189,174 L470.03142,174 Z M504.27165,177.5 L504.27165,215 L473.27165,215 L473.27165,177.5 C473.272199,176.99457 473.211704,176.490923 473.09148,176 L504.45183,176 C504.331598,176.490922 504.271099,176.994569 504.27165,177.5 Z M514.03142,174 L514.77165,175.46 C515.099691,176.089992 515.271193,176.789718 515.27165,177.5 L515.27165,217 L550.27165,217 L550.27165,177.5 C550.272112,176.789719 550.443613,176.089993 550.77165,175.46 L551.51189,174 L514.03142,174 Z M548.27165,177.5 L548.27165,215 L517.27165,215 L517.27165,177.5 C517.272199,176.99457 517.211704,176.490923 517.09148,176 L548.45183,176 C548.331598,176.490922 548.271099,176.994569 548.27165,177.5 Z M558.03142,174 L558.77165,175.46 C559.099691,176.089992 559.271193,176.789718 559.27165,177.5 L559.27165,217 L594.27165,217 L594.27165,177.5 C594.272112,176.789719 594.443613,176.089993 594.77165,175.46 L595.51189,174 L558.03142,174 Z M592.27165,177.5 L592.27165,215 L561.27165,215 L561.27165,177.5 C561.272199,176.99457 561.211704,176.490923 561.09148,176 L592.45183,176 C592.331598,176.490922 592.271099,176.994569 592.27165,177.5 Z M602.03142,174 L602.77165,175.46 C603.099691,176.089992 603.271193,176.789718 603.27165,177.5 L603.27165,217 L638.27165,217 L638.27165,177.5 C638.272112,176.789719 638.443613,176.089993 638.77165,175.46 L639.51189,174 L602.03142,174 Z M636.27165,177.5 L636.27165,215 L605.27165,215 L605.27165,177.5 C605.272199,176.99457 605.211704,176.490923 605.09148,176 L636.45183,176 C636.331598,176.490922 636.271099,176.994569 636.27165,177.5 Z M646.03142,174 L646.77165,175.46 C647.099691,176.089992 647.271193,176.789718 647.27165,177.5 L647.27165,217 L682.27165,217 L682.27165,177.5 C682.272112,176.789719 682.443613,176.089993 682.77165,175.46 L683.51189,174 L646.03142,174 Z M680.27165,177.5 L680.27165,215 L649.27165,215 L649.27165,177.5 C649.272199,176.99457 649.211704,176.490923 649.09148,176 L680.45183,176 C680.331598,176.490922 680.271099,176.994569 680.27165,177.5 Z M294.03142,174 L294.77165,175.46 C295.099691,176.089992 295.271193,176.789718 295.27165,177.5 L295.27165,217 L330.27165,217 L330.27165,177.5 C330.272112,176.789719 330.443613,176.089993 330.77165,175.46 L331.51189,174 L294.03142,174 Z M328.27165,177.5 L328.27165,215 L297.27165,215 L297.27165,177.5 C297.272199,176.99457 297.211704,176.490923 297.09148,176 L328.45183,176 C328.331598,176.490922 328.271099,176.994569 328.27165,177.5 Z M338.03142,174 L338.77165,175.46 C339.099691,176.089992 339.271193,176.789718 339.27165,177.5 L339.27165,217 L374.27165,217 L374.27165,177.5 C374.272112,176.789719 374.443613,176.089993 374.77165,175.46 L375.51189,174 L338.03142,174 Z M372.27165,177.5 L372.27165,215 L341.27165,215 L341.27165,177.5 C341.272199,176.99457 341.211704,176.490923 341.09148,176 L372.45183,176 C372.331598,176.490922 372.271099,176.994569 372.27165,177.5 Z M382.03142,174 L382.77165,175.46 C383.099691,176.089992 383.271193,176.789718 383.27165,177.5 L383.27165,217 L418.27165,217 L418.27165,177.5 C418.272112,176.789719 418.443613,176.089993 418.77165,175.46 L419.51189,174 L382.03142,174 Z M416.27165,177.5 L416.27165,215 L385.27165,215 L385.27165,177.5 C385.272199,176.99457 385.211704,176.490923 385.09148,176 L416.45183,176 C416.331598,176.490922 416.271099,176.994569 416.27165,177.5 Z M426.03142,174 L426.77165,175.46 C427.099691,176.089992 427.271193,176.789718 427.27165,177.5 L427.27165,217 L462.27165,217 L462.27165,177.5 C462.272112,176.789719 462.443613,176.089993 462.77165,175.46 L463.51189,174 L426.03142,174 Z M460.27165,177.5 L460.27165,215 L429.27165,215 L429.27165,177.5 C429.272199,176.99457 429.211704,176.490923 429.09148,176 L460.45183,176 C460.331598,176.490922 460.271099,176.994569 460.27165,177.5 Z M470.03142,174 L470.77165,175.46 C471.099691,176.089992 471.271193,176.789718 471.27165,177.5 L471.27165,217 L506.27165,217 L506.27165,177.5 C506.272112,176.789719 506.443613,176.089993 506.77165,175.46 L507.51189,174 L470.03142,174 Z M504.27165,177.5 L504.27165,215 L473.27165,215 L473.27165,177.5 C473.272199,176.99457 473.211704,176.490923 473.09148,176 L504.45183,176 C504.331598,176.490922 504.271099,176.994569 504.27165,177.5 Z M514.03142,174 L514.77165,175.46 C515.099691,176.089992 515.271193,176.789718 515.27165,177.5 L515.27165,217 L550.27165,217 L550.27165,177.5 C550.272112,176.789719 550.443613,176.089993 550.77165,175.46 L551.51189,174 L514.03142,174 Z M548.27165,177.5 L548.27165,215 L517.27165,215 L517.27165,177.5 C517.272199,176.99457 517.211704,176.490923 517.09148,176 L548.45183,176 C548.331598,176.490922 548.271099,176.994569 548.27165,177.5 Z M558.03142,174 L558.77165,175.46 C559.099691,176.089992 559.271193,176.789718 559.27165,177.5 L559.27165,217 L594.27165,217 L594.27165,177.5 C594.272112,176.789719 594.443613,176.089993 594.77165,175.46 L595.51189,174 L558.03142,174 Z M592.27165,177.5 L592.27165,215 L561.27165,215 L561.27165,177.5 C561.272199,176.99457 561.211704,176.490923 561.09148,176 L592.45183,176 C592.331598,176.490922 592.271099,176.994569 592.27165,177.5 Z M602.03142,174 L602.77165,175.46 C603.099691,176.089992 603.271193,176.789718 603.27165,177.5 L603.27165,217 L638.27165,217 L638.27165,177.5 C638.272112,176.789719 638.443613,176.089993 638.77165,175.46 L639.51189,174 L602.03142,174 Z M636.27165,177.5 L636.27165,215 L605.27165,215 L605.27165,177.5 C605.272199,176.99457 605.211704,176.490923 605.09148,176 L636.45183,176 C636.331598,176.490922 636.271099,176.994569 636.27165,177.5 Z M646.03142,174 L646.77165,175.46 C647.099691,176.089992 647.271193,176.789718 647.27165,177.5 L647.27165,217 L682.27165,217 L682.27165,177.5 C682.272112,176.789719 682.443613,176.089993 682.77165,175.46 L683.51189,174 L646.03142,174 Z M680.27165,177.5 L680.27165,215 L649.27165,215 L649.27165,177.5 C649.272199,176.99457 649.211704,176.490923 649.09148,176 L680.45183,176 C680.331598,176.490922 680.271099,176.994569 680.27165,177.5 Z M294.03142,174 L294.77165,175.46 C295.099691,176.089992 295.271193,176.789718 295.27165,177.5 L295.27165,217 L330.27165,217 L330.27165,177.5 C330.272112,176.789719 330.443613,176.089993 330.77165,175.46 L331.51189,174 L294.03142,174 Z M328.27165,177.5 L328.27165,215 L297.27165,215 L297.27165,177.5 C297.272199,176.99457 297.211704,176.490923 297.09148,176 L328.45183,176 C328.331598,176.490922 328.271099,176.994569 328.27165,177.5 Z M338.03142,174 L338.77165,175.46 C339.099691,176.089992 339.271193,176.789718 339.27165,177.5 L339.27165,217 L374.27165,217 L374.27165,177.5 C374.272112,176.789719 374.443613,176.089993 374.77165,175.46 L375.51189,174 L338.03142,174 Z M372.27165,177.5 L372.27165,215 L341.27165,215 L341.27165,177.5 C341.272199,176.99457 341.211704,176.490923 341.09148,176 L372.45183,176 C372.331598,176.490922 372.271099,176.994569 372.27165,177.5 Z M382.03142,174 L382.77165,175.46 C383.099691,176.089992 383.271193,176.789718 383.27165,177.5 L383.27165,217 L418.27165,217 L418.27165,177.5 C418.272112,176.789719 418.443613,176.089993 418.77165,175.46 L419.51189,174 L382.03142,174 Z M416.27165,177.5 L416.27165,215 L385.27165,215 L385.27165,177.5 C385.272199,176.99457 385.211704,176.490923 385.09148,176 L416.45183,176 C416.331598,176.490922 416.271099,176.994569 416.27165,177.5 Z M426.03142,174 L426.77165,175.46 C427.099691,176.089992 427.271193,176.789718 427.27165,177.5 L427.27165,217 L462.27165,217 L462.27165,177.5 C462.272112,176.789719 462.443613,176.089993 462.77165,175.46 L463.51189,174 L426.03142,174 Z M460.27165,177.5 L460.27165,215 L429.27165,215 L429.27165,177.5 C429.272199,176.99457 429.211704,176.490923 429.09148,176 L460.45183,176 C460.331598,176.490922 460.271099,176.994569 460.27165,177.5 Z M470.03142,174 L470.77165,175.46 C471.099691,176.089992 471.271193,176.789718 471.27165,177.5 L471.27165,217 L506.27165,217 L506.27165,177.5 C506.272112,176.789719 506.443613,176.089993 506.77165,175.46 L507.51189,174 L470.03142,174 Z M504.27165,177.5 L504.27165,215 L473.27165,215 L473.27165,177.5 C473.272199,176.99457 473.211704,176.490923 473.09148,176 L504.45183,176 C504.331598,176.490922 504.271099,176.994569 504.27165,177.5 Z M514.03142,174 L514.77165,175.46 C515.099691,176.089992 515.271193,176.789718 515.27165,177.5 L515.27165,217 L550.27165,217 L550.27165,177.5 C550.272112,176.789719 550.443613,176.089993 550.77165,175.46 L551.51189,174 L514.03142,174 Z M548.27165,177.5 L548.27165,215 L517.27165,215 L517.27165,177.5 C517.272199,176.99457 517.211704,176.490923 517.09148,176 L548.45183,176 C548.331598,176.490922 548.271099,176.994569 548.27165,177.5 Z M558.03142,174 L558.77165,175.46 C559.099691,176.089992 559.271193,176.789718 559.27165,177.5 L559.27165,217 L594.27165,217 L594.27165,177.5 C594.272112,176.789719 594.443613,176.089993 594.77165,175.46 L595.51189,174 L558.03142,174 Z M592.27165,177.5 L592.27165,215 L561.27165,215 L561.27165,177.5 C561.272199,176.99457 561.211704,176.490923 561.09148,176 L592.45183,176 C592.331598,176.490922 592.271099,176.994569 592.27165,177.5 Z M602.03142,174 L602.77165,175.46 C603.099691,176.089992 603.271193,176.789718 603.27165,177.5 L603.27165,217 L638.27165,217 L638.27165,177.5 C638.272112,176.789719 638.443613,176.089993 638.77165,175.46 L639.51189,174 L602.03142,174 Z M636.27165,177.5 L636.27165,215 L605.27165,215 L605.27165,177.5 C605.272199,176.99457 605.211704,176.490923 605.09148,176 L636.45183,176 C636.331598,176.490922 636.271099,176.994569 636.27165,177.5 Z M646.03142,174 L646.77165,175.46 C647.099691,176.089992 647.271193,176.789718 647.27165,177.5 L647.27165,217 L682.27165,217 L682.27165,177.5 C682.272112,176.789719 682.443613,176.089993 682.77165,175.46 L683.51189,174 L646.03142,174 Z M680.27165,177.5 L680.27165,215 L649.27165,215 L649.27165,177.5 C649.272199,176.99457 649.211704,176.490923 649.09148,176 L680.45183,176 C680.331598,176.490922 680.271099,176.994569 680.27165,177.5 Z" id="Shape" fill="#3F3D56"></path>
            <path d="M412.92378,349 L339.18054,349 C335.946705,348.996357 333.326073,346.375725 333.32243,343.14189 L333.32243,303.85811 C333.326073,300.624275 335.946705,298.003643 339.18054,298 L412.92378,298 C416.157628,298.00361 418.77828,300.624262 418.78189,303.85811 L418.78189,343.14189 C418.77828,346.375738 416.157628,348.99639 412.92378,349 Z" id="Shape" fill="#F9F871"></path>
            <path d="M525.14328,349 L451.4,349 C448.166165,348.996357 445.545533,346.375725 445.54189,343.14189 L445.54189,303.85811 C445.545533,300.624275 448.166165,298.003643 451.4,298 L525.14325,298 C528.377095,298.003615 530.99774,300.624265 531.00135,303.85811 L531.00135,343.14189 C530.99774,346.375723 528.377113,348.996368 525.14328,349 Z" id="Shape" fill="#F9F871"></path>
            <path d="M637.36277,349 L563.61952,349 C560.385687,348.996357 557.765057,346.375723 557.76142,343.14189 L557.76142,303.85811 C557.765057,300.624277 560.385687,298.003643 563.61952,298 L637.36277,298 C640.596618,298.00361 643.21727,300.624262 643.22088,303.85811 L643.22088,343.14189 C643.21727,346.375738 640.596618,348.99639 637.36277,349 Z" id="Shape" fill="#F9F871"></path>
            <path d="M412.92378,480 L339.18054,480 C335.946705,479.996357 333.326073,477.375725 333.32243,474.14189 L333.32243,434.85811 C333.326073,431.624275 335.946705,429.003643 339.18054,429 L412.92378,429 C416.157628,429.00361 418.77828,431.624262 418.78189,434.85811 L418.78189,474.14189 C418.77828,477.375738 416.157628,479.99639 412.92378,480 Z" id="Shape" fill="#F9F871"></path>
            <path d="M525.14328,480 L451.4,480 C448.166165,479.996357 445.545533,477.375725 445.54189,474.14189 L445.54189,434.85811 C445.545533,431.624275 448.166165,429.003643 451.4,429 L525.14325,429 C528.377095,429.003615 530.99774,431.624265 531.00135,434.85811 L531.00135,474.14189 C530.99774,477.375723 528.377113,479.996368 525.14328,480 Z" id="Shape" fill="#F9F871"></path>
            <path d="M637.36277,480 L563.61952,480 C560.385687,479.996357 557.765057,477.375723 557.76142,474.14189 L557.76142,434.85811 C557.765057,431.624277 560.385687,429.003643 563.61952,429 L637.36277,429 C640.596618,429.00361 643.21727,431.624262 643.22088,434.85811 L643.22088,474.14189 C643.21727,477.375738 640.596618,479.99639 637.36277,480 Z" id="Shape" fill="#F9F871"></path>
            <path d="M412.92378,611 L339.18054,611 C335.946705,610.996357 333.326073,608.375725 333.32243,605.14189 L333.32243,565.85811 C333.326073,562.624275 335.946705,560.003643 339.18054,560 L412.92378,560 C416.157628,560.00361 418.77828,562.624262 418.78189,565.85811 L418.78189,605.14189 C418.77828,608.375738 416.157628,610.99639 412.92378,611 Z" id="Shape" fill="#F9F871"></path>
            <path d="M525.14328,611 L451.4,611 C448.166165,610.996357 445.545533,608.375725 445.54189,605.14189 L445.54189,565.85811 C445.545533,562.624275 448.166165,560.003643 451.4,560 L525.14325,560 C528.377095,560.003615 530.99774,562.624265 531.00135,565.85811 L531.00135,605.14189 C530.99774,608.375723 528.377113,610.996368 525.14328,611 Z" id="Shape" fill="#F9F871"></path>
            <path d="M637.36277,611 L563.61952,611 C560.385687,610.996357 557.765057,608.375723 557.76142,605.14189 L557.76142,565.85811 C557.765057,562.624277 560.385687,560.003643 563.61952,560 L637.36277,560 C640.596618,560.00361 643.21727,562.624262 643.22088,565.85811 L643.22088,605.14189 C643.21727,608.375738 640.596618,610.99639 637.36277,611 Z" id="Shape" fill="#F9F871"></path>
            <path d="M400.98528,354.04053 L315.55791,354.04053 C311.259611,354.035526 307.776455,350.552209 307.77165,346.25391 L307.77165,300.7461 C307.77645,296.447797 311.259607,292.964474 315.55791,292.95947 L400.98528,292.95947 C405.283621,292.964424 408.766839,296.447759 408.77165,300.7461 L408.77165,346.25391 C408.766834,350.552247 405.283617,354.035576 400.98528,354.04053 Z M315.55791,294.95947 C312.363619,294.96313 309.775105,297.551809 309.77165,300.7461 L309.77165,346.25391 C309.775105,349.448199 312.363621,352.036876 315.55791,352.04053 L400.98528,352.04053 C404.179607,352.036926 406.768184,349.448237 406.77165,346.25391 L406.77165,300.7461 C406.768189,297.551769 404.179611,294.963074 400.98528,294.95947 L315.55791,294.95947 Z" id="Shape" fill="#3F3D56"></path>
            <path d="M530.98528,354.04053 L445.558,354.04053 C441.259659,354.035581 437.776436,350.552251 437.77162,346.25391 L437.77162,300.7461 C437.776436,296.447757 441.259657,292.964424 445.558,292.95947 L530.98525,292.95947 C535.283591,292.964424 538.766809,296.447759 538.77162,300.7461 L538.77162,346.25391 C538.766804,350.552236 535.283605,354.035559 530.98528,354.04053 Z M445.558,294.95947 C442.363667,294.963074 439.775086,297.551767 439.77162,300.7461 L439.77162,346.25391 C439.775086,349.448241 442.363669,352.036931 445.558,352.04053 L530.98525,352.04053 C534.179577,352.036926 536.768154,349.448237 536.77162,346.25391 L536.77162,300.7461 C536.768159,297.551769 534.179581,294.963074 530.98525,294.95947 L445.558,294.95947 Z" id="Shape" fill="#3F3D56"></path>
            <path d="M660.98528,354.04053 L575.558,354.04053 C571.259659,354.035581 567.776436,350.552251 567.77162,346.25391 L567.77162,300.7461 C567.776436,296.447757 571.259657,292.964424 575.558,292.95947 L660.98525,292.95947 C665.283591,292.964424 668.766809,296.447759 668.77162,300.7461 L668.77162,346.25391 C668.766804,350.552236 665.283605,354.035559 660.98528,354.04053 Z M575.558,294.95947 C572.363667,294.963074 569.775086,297.551767 569.77162,300.7461 L569.77162,346.25391 C569.775086,349.448241 572.363669,352.036931 575.558,352.04053 L660.98525,352.04053 C664.179577,352.036926 666.768154,349.448237 666.77162,346.25391 L666.77162,300.7461 C666.768159,297.551769 664.179581,294.963074 660.98525,294.95947 L575.558,294.95947 Z" id="Shape" fill="#3F3D56"></path>
            <path d="M400.98528,485.04053 L315.55791,485.04053 C311.259611,485.035526 307.776455,481.552209 307.77165,477.25391 L307.77165,431.7461 C307.77645,427.447797 311.259607,423.964474 315.55791,423.95947 L400.98528,423.95947 C405.283621,423.964424 408.766839,427.447759 408.77165,431.7461 L408.77165,477.25391 C408.766834,481.552247 405.283617,485.035576 400.98528,485.04053 Z M315.55791,425.95947 C312.363619,425.96313 309.775105,428.551809 309.77165,431.7461 L309.77165,477.25391 C309.775105,480.448199 312.363621,483.036876 315.55791,483.04053 L400.98528,483.04053 C404.179607,483.036926 406.768184,480.448237 406.77165,477.25391 L406.77165,431.7461 C406.768189,428.551769 404.179611,425.963074 400.98528,425.95947 L315.55791,425.95947 Z" id="Shape" fill="#3F3D56"></path>
            <path d="M530.98528,485.04053 L445.558,485.04053 C441.259659,485.035581 437.776436,481.552251 437.77162,477.25391 L437.77162,431.7461 C437.776436,427.447757 441.259657,423.964424 445.558,423.95947 L530.98525,423.95947 C535.283591,423.964424 538.766809,427.447759 538.77162,431.7461 L538.77162,477.25391 C538.766804,481.552236 535.283605,485.035559 530.98528,485.04053 Z M445.558,425.95947 C442.363667,425.963074 439.775086,428.551767 439.77162,431.7461 L439.77162,477.25391 C439.775086,480.448241 442.363669,483.036931 445.558,483.04053 L530.98525,483.04053 C534.179577,483.036926 536.768154,480.448237 536.77162,477.25391 L536.77162,431.7461 C536.768159,428.551769 534.179581,425.963074 530.98525,425.95947 L445.558,425.95947 Z" id="Shape" fill="#3F3D56"></path>
            <path d="M660.98528,485.04053 L575.558,485.04053 C571.259659,485.035581 567.776436,481.552251 567.77162,477.25391 L567.77162,431.7461 C567.776436,427.447757 571.259657,423.964424 575.558,423.95947 L660.98525,423.95947 C665.283591,423.964424 668.766809,427.447759 668.77162,431.7461 L668.77162,477.25391 C668.766804,481.552236 665.283605,485.035559 660.98528,485.04053 Z M575.558,425.95947 C572.363667,425.963074 569.775086,428.551767 569.77162,431.7461 L569.77162,477.25391 C569.775086,480.448241 572.363669,483.036931 575.558,483.04053 L660.98525,483.04053 C664.179577,483.036926 666.768154,480.448237 666.77162,477.25391 L666.77162,431.7461 C666.768159,428.551769 664.179581,425.963074 660.98525,425.95947 L575.558,425.95947 Z" id="Shape" fill="#3F3D56"></path>
            <path d="M400.98528,616.04053 L315.55791,616.04053 C311.259611,616.035526 307.776455,612.552209 307.77165,608.25391 L307.77165,562.7461 C307.77645,558.447797 311.259607,554.964474 315.55791,554.95947 L400.98528,554.95947 C405.283621,554.964424 408.766839,558.447759 408.77165,562.7461 L408.77165,608.25391 C408.766834,612.552247 405.283617,616.035576 400.98528,616.04053 Z M315.55791,556.95947 C312.363619,556.96313 309.775105,559.551809 309.77165,562.7461 L309.77165,608.25391 C309.775105,611.448199 312.363621,614.036876 315.55791,614.04053 L400.98528,614.04053 C404.179607,614.036926 406.768184,611.448237 406.77165,608.25391 L406.77165,562.7461 C406.768189,559.551769 404.179611,556.963074 400.98528,556.95947 L315.55791,556.95947 Z" id="Shape" fill="#3F3D56"></path>
            <path d="M530.98528,616.04053 L445.558,616.04053 C441.259659,616.035581 437.776436,612.552251 437.77162,608.25391 L437.77162,562.7461 C437.776436,558.447757 441.259657,554.964424 445.558,554.95947 L530.98525,554.95947 C535.283591,554.964424 538.766809,558.447759 538.77162,562.7461 L538.77162,608.25391 C538.766804,612.552236 535.283605,616.035559 530.98528,616.04053 Z M445.558,556.95947 C442.363667,556.963074 439.775086,559.551767 439.77162,562.7461 L439.77162,608.25391 C439.775086,611.448241 442.363669,614.036931 445.558,614.04053 L530.98525,614.04053 C534.179577,614.036926 536.768154,611.448237 536.77162,608.25391 L536.77162,562.7461 C536.768159,559.551769 534.179581,556.963074 530.98525,556.95947 L445.558,556.95947 Z" id="Shape" fill="#3F3D56"></path>
            <path d="M660.98528,616.04053 L575.558,616.04053 C571.259659,616.035581 567.776436,612.552251 567.77162,608.25391 L567.77162,562.7461 C567.776436,558.447757 571.259657,554.964424 575.558,554.95947 L660.98525,554.95947 C665.283591,554.964424 668.766809,558.447759 668.77162,562.7461 L668.77162,608.25391 C668.766804,612.552236 665.283605,616.035559 660.98528,616.04053 Z M575.558,556.95947 C572.363667,556.963074 569.775086,559.551767 569.77162,562.7461 L569.77162,608.25391 C569.775086,611.448241 572.363669,614.036931 575.558,614.04053 L660.98525,614.04053 C664.179577,614.036926 666.768154,611.448237 666.77162,608.25391 L666.77162,562.7461 C666.768159,559.551769 664.179581,556.963074 660.98525,556.95947 L575.558,556.95947 Z" id="Shape" fill="#3F3D56"></path>
            <path d="M1009,770.5 L1,770.5 C0.44771525,770.5 0,770.052285 0,769.5 C0,768.947715 0.44771525,768.5 1,768.5 L1009,768.5 C1009.55228,768.5 1010,768.947715 1010,769.5 C1010,770.052285 1009.55228,770.5 1009,770.5 Z" id="Shape" fill="#3F3D56"></path>
            <path d="M538.77165,673.7104 C538.829003,668.958178 535.023854,665.05884 530.27165,665 L488.27165,665 L488.27165,768.5 L538.77165,768.5 L538.77165,673.7104 Z" id="Shape" fill="#3F3D56"></path>
            <path d="M489.27165,767.5 L436.77165,767.5 L436.77165,674 C436.777607,668.755764 441.027414,664.505957 446.27165,664.5 L489.27165,664.5 L489.27165,767.5 Z M438.77165,765.5 L487.27165,765.5 L487.27165,666.5 L446.27165,666.5 C442.131424,666.504607 438.776257,669.859774 438.77165,674 L438.77165,765.5 Z" id="Shape" fill="#3F3D56"></path>
            <circle id="Oval" fill="#3F3D56" cx="443.27165" cy="720" r="3"></circle>
        </g>
    </g>
</svg>