<?xml version="1.0" encoding="UTF-8" standalone="no"?>
<svg width="948px" height="692px" viewBox="0 0 948 692" version="1.1" xmlns="http://www.w3.org/2000/svg" xmlns:xlink="http://www.w3.org/1999/xlink">
    <!-- Generator: Sketch 50.2 (55047) - http://www.bohemiancoding.com/sketch -->
    <title>Construction@sndy</title>
    <desc>Created with Sketch.</desc>
    <defs></defs>
    <g id="Page-1" stroke="none" stroke-width="1" fill="none" fill-rule="evenodd">
        <g id="Construction" fill-rule="nonzero">
            <path d="M940.82,672.74 C940.82,679.57 917.29,685.97 876.23,691.47 L99.59,691.47 C65.0357825,691.543611 31.0782469,682.465957 1.17,665.16 L0.71,664.9 C12.51,660.6 33.81,656.59 62.8,652.97 L64.1,652.81 C77.1,651.22 91.63,649.71 107.51,648.28 C107.91,648.28 108.32,648.22 108.72,648.17 C121.32,647.05 134.723333,646 148.93,645.02 C149.38,645.02 149.82,644.94 150.27,644.92 C155.75,644.526667 161.343333,644.153333 167.05,643.8 L169.25,643.66 C210.8,641.08 258.03,639.02 309.25,637.66 L309.31,637.66 C316.483333,637.46 323.733333,637.283333 331.06,637.13 C339.206667,636.936667 347.453333,636.766667 355.8,636.62 C362.17,636.48 368.62,636.38 375.09,636.28 L375.24,636.28 C404.43,635.84 434.59,635.62 465.43,635.62 C541.69,635.62 613.77,637.01 677.64,639.51 L677.82,639.51 C687.64,639.89 697.28,640.31 706.68,640.74 L714.68,641.12 C725.286667,641.626667 735.62,642.17 745.68,642.75 C863.98,649.48 940.82,660.41 940.82,672.74 Z" id="Shape" fill="#F9F871" opacity="0.1"></path>
            <g id="Group" opacity="0.2" transform="translate(497.000000, 361.000000)">
                <path d="M59.28,270.03 C59.2480408,271.108565 59.1242599,272.182448 58.91,273.24 C51.95,272.133333 44.95,271.133333 37.91,270.24 C37.91,269.96 37.91,269.67 37.91,269.38 C37.9751608,266.381428 38.838092,263.454366 40.41,260.9 C42.47,257.64 45.6,255.6 49.05,255.71 C52.5,255.82 55.49,258.05 57.34,261.42 C58.7392577,264.066994 59.4088398,267.038696 59.28,270.03 Z" id="Shape" fill="#3F3D56"></path>
                <ellipse id="Oval" fill="#3F3D56" transform="translate(49.159773, 252.603845) rotate(-88.190000) translate(-49.159773, -252.603845) " cx="49.1597733" cy="252.603845" rx="14.01" ry="10.7"></ellipse>
                <ellipse id="Oval" fill="#3F3D56" transform="translate(49.705371, 235.483376) rotate(-88.190000) translate(-49.705371, -235.483376) " cx="49.7053711" cy="235.483376" rx="14.01" ry="10.7"></ellipse>
                <ellipse id="Oval" fill="#3F3D56" transform="translate(50.240969, 218.362906) rotate(-88.190000) translate(-50.240969, -218.362906) " cx="50.2409689" cy="218.362906" rx="14.01" ry="10.7"></ellipse>
                <ellipse id="Oval" fill="#3F3D56" transform="translate(50.776567, 201.242437) rotate(-88.190000) translate(-50.776567, -201.242437) " cx="50.7765668" cy="201.242437" rx="14.01" ry="10.7"></ellipse>
                <path d="M14.38,82.79 C12.9717587,80.8832553 11.7018453,78.8781289 10.58,76.79 L38.84,73.06 L8.42,72.33 C2.93359429,59.3164441 3.04571068,44.6183463 8.73,31.69 L48.85,54.14 L12.1,25.3 C22.2054937,8.95551926 40.6008404,-0.367441717 59.7573079,1.14676011 C78.9137754,2.66096195 95.6159884,14.7581708 103.02817,32.4873168 C110.440351,50.2164629 107.318381,70.601744 94.94,85.3 C97.1303553,88.2658484 98.9913186,91.4613404 100.49,94.83 L63.4,112.63 L102.73,100.8 C107.761964,117.403397 104.06811,135.425044 92.91,148.71 C108.780168,170.242224 105.433865,200.3562 85.2238375,217.879147 C65.0138094,235.402094 34.7295305,234.447252 15.6635189,215.685959 C-3.40249259,196.924666 -4.84508995,166.6597 12.35,146.17 C-1.69111757,127.113789 -0.864649797,100.923025 14.35,82.79 L14.38,82.79 Z" id="Shape" fill="#F9F871"></path>
                <path d="M104.91,117.37 C104.559988,128.871257 100.33092,139.916174 92.91,148.71 C108.780168,170.242224 105.433865,200.3562 85.2238375,217.879147 C65.0138094,235.402094 34.7295305,234.447252 15.6635189,215.685959 C-3.40249259,196.924666 -4.84508995,166.6597 12.35,146.17 C5.78,137.24 105.09,111.62 104.91,117.37 Z" id="Shape" fill="#000000" opacity="0.1"></path>
            </g>
            <g id="Group" opacity="0.2" transform="translate(345.000000, 361.000000)">
                <path d="M59.28,270.03 C59.2480408,271.108565 59.1242599,272.182448 58.91,273.24 C51.95,272.133333 44.95,271.133333 37.91,270.24 C37.91,269.96 37.91,269.67 37.91,269.38 C37.9751608,266.381428 38.838092,263.454366 40.41,260.9 C42.47,257.64 45.6,255.6 49.05,255.71 C52.5,255.82 55.49,258.05 57.34,261.42 C58.7392577,264.066994 59.4088398,267.038696 59.28,270.03 Z" id="Shape" fill="#3F3D56"></path>
                <ellipse id="Oval" fill="#3F3D56" transform="translate(49.148822, 252.608006) rotate(-88.190000) translate(-49.148822, -252.608006) " cx="49.1488221" cy="252.608006" rx="14.01" ry="10.7"></ellipse>
                <ellipse id="Oval" fill="#3F3D56" transform="translate(49.694420, 235.487537) rotate(-88.190000) translate(-49.694420, -235.487537) " cx="49.6944199" cy="235.487537" rx="14.01" ry="10.7"></ellipse>
                <ellipse id="Oval" fill="#3F3D56" transform="translate(50.230018, 218.367068) rotate(-88.190000) translate(-50.230018, -218.367068) " cx="50.2300177" cy="218.367068" rx="14.01" ry="10.7"></ellipse>
                <ellipse id="Oval" fill="#3F3D56" transform="translate(50.765616, 201.246598) rotate(-88.190000) translate(-50.765616, -201.246598) " cx="50.7656155" cy="201.246598" rx="14.01" ry="10.7"></ellipse>
                <path d="M14.38,82.79 C12.9717587,80.8832553 11.7018453,78.8781289 10.58,76.79 L38.84,73.06 L8.42,72.33 C2.93359429,59.3164441 3.04571068,44.6183463 8.73,31.69 L48.85,54.14 L12.1,25.3 C22.2054937,8.95551926 40.6008404,-0.367441717 59.7573079,1.14676011 C78.9137754,2.66096195 95.6159884,14.7581708 103.02817,32.4873168 C110.440351,50.2164629 107.318381,70.601744 94.94,85.3 C97.1303553,88.2658484 98.9913186,91.4613404 100.49,94.83 L63.4,112.63 L102.73,100.8 C107.761964,117.403397 104.06811,135.425044 92.91,148.71 C108.780168,170.242224 105.433865,200.3562 85.2238375,217.879147 C65.0138094,235.402094 34.7295305,234.447252 15.6635189,215.685959 C-3.40249259,196.924666 -4.84508995,166.6597 12.35,146.17 C-1.69111757,127.113789 -0.864649797,100.923025 14.35,82.79 L14.38,82.79 Z" id="Shape" fill="#F9F871"></path>
                <path d="M104.91,117.37 C104.559988,128.871257 100.33092,139.916174 92.91,148.71 C108.780168,170.242224 105.433865,200.3562 85.2238375,217.879147 C65.0138094,235.402094 34.7295305,234.447252 15.6635189,215.685959 C-3.40249259,196.924666 -4.84508995,166.6597 12.35,146.17 C5.78,137.24 105.09,111.62 104.91,117.37 Z" id="Shape" fill="#000000" opacity="0.1"></path>
            </g>
            <g id="Group" opacity="0.2" transform="translate(706.000000, 124.000000)">
                <path d="M113.48,517.97 C113.403722,520.013249 113.159566,522.046767 112.75,524.05 C99.35,521.91 85.8533333,519.996667 72.26,518.31 C72.26,517.77 72.26,517.22 72.26,516.66 C72.3869226,510.885051 74.0506869,505.248273 77.08,500.33 C81.08,494.06 87.08,490.13 93.71,490.33 C100.34,490.53 106.11,494.84 109.71,501.33 C112.424783,506.442448 113.726215,512.1867 113.48,517.97 Z" id="Shape" fill="#3F3D56"></path>
                <ellipse id="Oval" fill="#3F3D56" transform="translate(93.968387, 484.395595) rotate(-88.190000) translate(-93.968387, -484.395595) " cx="93.968387" cy="484.395595" rx="26.98" ry="20.61"></ellipse>
                <ellipse id="Oval" fill="#3F3D56" transform="translate(95.007681, 451.435066) rotate(-88.190000) translate(-95.007681, -451.435066) " cx="95.0076806" cy="451.435066" rx="26.98" ry="20.61"></ellipse>
                <ellipse id="Oval" fill="#3F3D56" transform="translate(96.056969, 418.474852) rotate(-88.190000) translate(-96.056969, -418.474852) " cx="96.0569692" cy="418.474852" rx="26.98" ry="20.61"></ellipse>
                <ellipse id="Oval" fill="#3F3D56" transform="translate(95.913600, 384.047200) rotate(-88.281642) translate(-95.913600, -384.047200) " cx="95.9136" cy="384.0472" rx="26.9921383" ry="20.6192724"></ellipse>
                <path d="M27.03,157.51 C24.3316322,153.838969 21.8891914,149.986528 19.72,145.98 L74.12,138.8 L15.57,137.39 C5.00027265,112.339041 5.21004476,84.0415061 16.15,59.15 L93.4,102.36 L22.66,46.84 C42.1558991,15.450947 77.5488681,-2.42261719 114.382334,0.519924 C151.215799,3.46246519 183.322228,26.7284016 197.587463,60.8145543 C211.852697,94.900707 205.888114,134.099563 182.13,162.4 C186.342857,168.114441 189.926927,174.266704 192.82,180.75 L121.41,215.04 L197.12,192.24 C206.813679,224.165311 199.730933,258.826758 178.29,284.39 C208.836168,325.843062 202.390627,383.812025 163.484811,417.542755 C124.578995,451.273484 66.2817612,449.435486 29.5780302,413.320935 C-7.12570071,377.206384 -9.9067734,318.946524 23.19,279.5 C-3.82536486,242.816271 -2.23887477,192.412159 27.03,157.5 L27.03,157.51 Z" id="Shape" fill="#F9F871"></path>
                <path d="M201.33,224.07 C200.673851,246.198862 192.570066,267.458965 178.33,284.41 C208.876168,325.863062 202.430627,383.832025 163.524811,417.562755 C124.618995,451.293484 66.3217612,449.455486 29.6180302,413.340935 C-7.08570071,377.226384 -9.8667734,318.966524 23.23,279.52 C10.49,262.31 201.68,213 201.33,224.07 Z" id="Shape" fill="#000000" opacity="0.1"></path>
            </g>
            <polygon id="Shape" fill="#F1C0C0" points="33.82 643.73 44.31 643.7 59.1 643.7 77.8 339.92 262.99 30.89 254.94 22.25 254.94 0.37 54.66 332.76"></polygon>
            <polygon id="Shape" fill="#000000" opacity="0.1" points="45.43 643.7 59.1 643.7 77.8 339.92 262.99 30.89 254.94 22.25 63.92 335.29"></polygon>
            <polygon id="Shape" fill="#F1C0C0" points="2.91 646.26 482.76 682.98 483.17 683.01 947.56 654.45 947.91 654.43 947.91 634.82 436.21 625.43 9.3 625.02 6.18 625.02 5.84 627.22"></polygon>
            <polygon id="Shape" fill="#000000" opacity="0.1" points="2.91 646.26 482.76 682.98 483.17 683.01 947.56 654.45 947.91 654.07 947.91 635.23 947.5 635.23 482.76 650.75 9.3 625.02 9.23 625.02 8.39 625.57 5.84 627.22"></polygon>
            <polygon id="Shape" fill="#000000" opacity="0.1" points="2.91 646.26 482.76 682.98 482.76 650.75 8.39 625.57 5.84 627.22"></polygon>
            <polygon id="Shape" fill="#F1C0C0" points="254.88 21.84 466.43 248.9 459.89 648.3 477.86 650.47 478.16 650.51 496.13 650.51 498.28 266.05 894.41 398.37 901.09 633.97 915.55 635.59 920.45 636.14 909.11 382.03 495.01 236.65 267.95 0.6 254.88 0.6"></polygon>
            <polygon id="Shape" fill="#000000" opacity="0.1" points="496.65 258.7 498.28 266.05 894.41 398.37 901.09 633.97 915.55 635.59 904.21 393.47"></polygon>
            <polygon id="Shape" fill="#000000" opacity="0.1" points="254.88 21.84 466.43 248.9 459.89 648.3 477.86 650.47 482.76 235.83 254.88 0.6"></polygon>
            <polygon id="Shape" fill="#F1C0C0" points="497.42 418.99 642.71 447.6 642.76 447.61 897.23 497.74 908.88 493.07 908.84 492.25 908.08 476 497.57 393.05"></polygon>
            <polygon id="Shape" fill="#000000" opacity="0.1" points="642.76 447.61 897.23 497.74 908.88 493.07 908.84 492.25"></polygon>
            <polygon id="Shape" fill="#F1C0C0" points="652.49 317.56 656.42 533.9 658.45 644.89 676.34 644.29 687.6 643.91 684.1 320.69 676.34 318.11 674.64 317.56"></polygon>
            <polygon id="Shape" fill="#000000" opacity="0.1" points="652.65 317.51 652.65 317.56 656.42 533.9 658.45 644.89 676.34 644.29 676.34 317.51"></polygon>
            <path d="M372.26,372.81 C373.309559,373.380374 374.31265,374.032383 375.26,374.76 C376.380218,375.74069 377.386547,376.844297 378.26,378.05 C382.55,383.6 386.51,390.05 386.09,397.05 C386.108107,399.107024 385.30555,401.086423 383.86,402.55 C382.09,404.06 379.55,404.13 377.23,404.13 C374.71,404.13 372.06,404.13 369.88,402.83 C367.7,401.53 365.88,399 363.3,399.06 C362.935808,399.120246 362.564192,399.120246 362.2,399.06 C361.31,398.77 361.13,397.6 360.55,396.86 C359.55,395.53 357.44,395.86 355.87,396.44 C354.3,397.02 352.56,397.89 351.01,397.22 C350.110184,396.745263 349.374737,396.009816 348.9,395.11 C345.19,389.11 344.4,381.9 343.7,374.93 C343.27,370.69 339.99,356.23 349.04,359.52 C353.04,360.96 356.78,363.84 360.42,365.95 L372.26,372.81 Z" id="Shape" fill="#3F3D56"></path>
            <path d="M363.32,374.24 C364.983294,375.436399 367.247772,375.345655 368.81,374.02 C370.299037,372.674496 371.248,370.833437 371.48,368.84 C372.48,368.53 372.99,369.84 373.63,370.64 C374.75,372 377.03,371.98 378.05,373.43 C378.76,374.43 378.6,375.82 379.1,376.95 C379.75,378.41 381.36,379.17 382.46,380.35 C383.498726,381.639238 384.248923,383.136222 384.66,384.74 L386.3,389.66 C387.084703,391.706057 387.58927,393.848785 387.8,396.03 C388.008916,398.232649 387.324337,400.426905 385.9,402.12 C383.7,404.49 380.09,404.74 376.9,404.67 C375.83466,404.692644 374.771293,404.568136 373.74,404.3 C370.91,403.42 369.1,400.57 368.35,397.7 C367.6,394.83 367.68,391.82 367.24,388.88 C366.764757,385.992102 365.924704,383.176245 364.74,380.5 C363.86,378.42 361.44,375.32 361.48,373.11 C362.2,373.11 362.72,373.77 363.32,374.24 Z" id="Shape" fill="#3F3D56"></path>
            <path d="M366.91,364.11 C366.442499,362.690086 366.170009,361.213256 366.1,359.72 C366.1,356.72 367.47,353.9 368.85,351.22 L357.42,352.77 C356.04,352.96 354.5,353.24 353.72,354.39 C353.118774,355.54653 353.118774,356.92347 353.72,358.08 C354.292998,359.220901 354.748669,360.417036 355.08,361.65 C355.105924,362.728993 355.229765,363.803404 355.45,364.86 C355.805703,365.636166 356.304393,366.338403 356.92,366.93 C360.19,370.55 362.64,374.82 365.08,379.05 C365.01,378.93 371.97,373.54 371.69,371.78 C371.53,370.78 369.52,369.58 368.88,368.62 C367.995944,367.226584 367.331507,365.705461 366.91,364.11 Z" id="Shape" fill="#BE6F72"></path>
            <polygon id="Shape" fill="#F1C0C0" points="464.91 325.04 464.91 334.89 296.24 367.79 287.49 373.09 257.3 373.09 257.3 367.54 423.02 327.5"></polygon>
            <polygon id="Shape" fill="#000000" opacity="0.1" points="464.91 334.89 296.24 367.79 287.49 373.09 257.3 373.09 424.25 337.36"></polygon>
            <path d="M329.49,604.66 C325.620429,599.973685 319.031239,598.572964 313.59,601.28 C313.024379,601.546319 312.525523,601.935837 312.13,602.42 C311.13,603.82 311.77,605.75 311.86,607.48 C312.09,611.7 308.73,615.13 305.71,618.08 C304.09,619.66 302.44,621.35 301.71,623.5 C300.98,625.65 301.52,628.38 303.48,629.5 C304.335341,629.92879 305.265992,630.186927 306.22,630.26 C309.416405,630.883535 312.693859,630.974763 315.92,630.53 C319.11,629.92 322.24,628.11 323.62,625.17 C323.886239,624.372897 324.326941,623.645226 324.91,623.04 C326.67,621.65 329.37,623.28 331.37,622.29 C333.02,621.47 333.09,620.18 333.11,618.48 C333.17,613.78 332.47,608.46 329.49,604.66 Z" id="Shape" fill="#F9F871"></path>
            <path d="M353.49,604.48 C354.72,607.72 354.89,611.25 355.05,614.71 C355.14,616.71 355.2,618.85 354.12,620.54 C353.04,622.23 350.93,623.12 348.91,623.54 C344.74,624.4 339.91,623.59 337.22,620.28 C335.16,617.75 334.73,614.28 335.11,611 C335.43,608.31 336.11,605.16 334.18,603.25 C333.68,602.74 333.03,602.38 332.57,601.83 C331.57,600.61 331.73,598.77 332.27,597.27 C332.973281,595.835476 333.500443,594.321142 333.84,592.76 C333.92,592.02 347.38,593.28 348.62,593.89 C350.31,594.72 350.05,596.11 350.56,597.79 C351.27,600.13 352.63,602.24 353.49,604.48 Z" id="Shape" fill="#F9F871"></path>
            <path d="M355.96,460.82 C358.6,462.53 359.62,465.89 360.03,469.01 C361.16,477.56 359.18,486.2 359.03,494.83 C358.89,506.92 362.39,519.23 359.4,530.94 C357.61,537.94 359.13,545.94 357.45,553.01 C356.95,555.11 356.03,557.09 355.55,559.19 C354.55,563.74 355.6,568.5 357.01,572.95 C357.460169,574.149336 357.746092,575.404037 357.86,576.68 C357.792202,578.644229 357.293792,580.569592 356.4,582.32 L350.4,596.51 C349.73,598.1 347.09,598.36 345.4,598.57 C342.22,598.95 338.67,599.22 336.14,597.25 C333.61,595.28 333,591.98 332.61,588.9 C331.861973,582.987196 331.527827,577.029366 331.61,571.07 C331.719913,569.514688 331.581514,567.951795 331.2,566.44 C330.65,564.73 329.44,563.25 329.11,561.44 C328.69,559.1 329.88,556.8 330.32,554.44 C330.62176,552.284467 330.588028,550.095212 330.22,547.95 C329.83,544.75 329.38,541.55 328.87,538.37 C328.15,533.92 329.18,529.53 329.87,525.07 C330.52,520.88 329.69,516.61 328.87,512.45 C328.940894,515.826335 328.51981,519.195003 327.62,522.45 C327.09,524.04 326.33,525.56 325.87,527.18 C323.82,534.45 328.19,542.08 327.57,549.61 C327.28,553.13 325.9,556.61 326.29,560.08 C326.56,562.62 327.74,564.95 328.55,567.37 C329.36,569.79 329.78,572.56 328.55,574.82 C325.3,580.96 327.73,589.31 330.64,595.61 C331.230669,596.727336 331.745174,597.883301 332.18,599.07 C333.04,601.91 332.32,604.96 332.55,607.92 C330.852918,608.197802 329.122542,607.677583 327.86,606.51 C327.42,606.05 327.06,605.51 326.63,605.03 C325.428538,603.884947 324.006242,602.996862 322.45,602.42 C321.536264,601.908612 320.495339,601.669199 319.45,601.73 C318.351021,602.036997 317.362368,602.651003 316.6,603.5 C315.61097,604.369676 314.561687,605.168334 313.46,605.89 C312.990734,606.250565 312.442216,606.49397 311.86,606.6 C311.259592,606.692803 310.66725,606.390587 310.39,605.85 C310.327515,605.683149 310.290436,605.507862 310.28,605.33 C309.90859,602.310528 309.711596,599.272152 309.69,596.23 C309.69,591 303.43,587.4 302.64,582.23 C302.01,578.06 303.18,573.81 302.79,569.61 C302.6,567.45 302,565.33 302.04,563.17 C302.04,561.77 302.36,560.4 302.47,559.01 C302.561679,557.46707 302.538281,555.919453 302.4,554.38 L302.09,549.55 C301.79,544.78 301.46,539.91 299.58,535.55 C297.350644,530.458979 296.030681,525.01667 295.68,519.47 C295.48,515.97 295.61,512.47 295.21,508.96 C294.85,505.79 294.05,502.64 294.28,499.46 C294.47,497 295.28,494.62 295.47,492.16 C295.86,487.43 294.06,482.83 292.65,478.3 C291.24,473.77 290.2,468.75 292.05,464.38 C292.31438,463.6627 292.754478,463.023182 293.33,462.52 C294.039317,462.050635 294.846546,461.749634 295.69,461.64 C312.847492,458.035808 330.433675,456.914361 347.91,458.31 C350.758986,458.471546 353.524073,459.333703 355.96,460.82 Z" id="Shape" fill="#3F3D56"></path>
            <circle id="Oval" fill="#BE6F72" cx="299.19" cy="338.59" r="16.02"></circle>
            <path d="M296.09,358.6 C296.320286,359.515744 296.320286,360.474256 296.09,361.39 C295.838085,362.029885 295.483423,362.624366 295.04,363.15 C293.489247,365.150351 291.773215,367.016912 289.91,368.73 C290.85918,370.850059 292.568146,372.537617 294.7,373.46 C296.816682,374.360966 299.036977,374.995816 301.31,375.35 C302.444558,375.648303 303.625233,375.729729 304.79,375.59 C305.863455,375.32021 306.879633,374.859543 307.79,374.23 L316.69,368.9 C318.032886,368.172602 319.276457,367.275214 320.39,366.23 C322.022296,364.552281 322.94617,362.310633 322.97,359.97 C323.011446,359.55075 322.89758,359.130869 322.65,358.79 C322.308862,358.493062 321.880975,358.314191 321.43,358.28 C318.3,357.59 315.83,355.05 314.43,352.17 C313.164412,349.217728 312.345433,346.093477 312,342.9 L302.51,347.9 C301.1,348.65 299.7,349.4 298.24,350.05 C297.31,350.47 295.43,350.82 294.77,351.67 C293.51,353.24 295.76,356.71 296.09,358.6 Z" id="Shape" fill="#BE6F72"></path>
            <path d="M289.97,365.82 C288.618801,366.927769 287.563891,368.353789 286.9,369.97 C286.28,371.97 286.9,374.08 287.46,376.06 C290.084559,384.499304 292.089882,393.118852 293.46,401.85 C294.3,407.85 294.61,413.94 295.02,420.01 C295.86,432.39 297.08,452.13 298.71,464.43 C304.71,464.7 310.56,462.95 316.51,462.31 C327.63,461.13 339.08,463.83 349.97,461.31 C347.33,450.88 344.69,433.07 342.05,422.65 C340.881773,418.544557 340.072069,414.345467 339.63,410.1 C339.4,407.05 339.54,403.99 339.58,400.92 C339.67,394.92 339.34,388.92 339.01,382.92 C338.63,375.92 338.25,368.92 336.59,362.07 C336.474362,361.197161 336.065295,360.389607 335.43,359.78 C334.43,359.05 333.13,359.31 331.94,359.47 C328.296332,359.932771 324.608449,359.058764 321.56,357.01 C320.24,356.11 318.47,355.01 317.24,356.01 C316.715107,356.613212 316.368807,357.350832 316.24,358.14 C315.138917,361.001986 312.85763,363.250475 309.98,364.31 C307.130247,365.342032 304.14582,365.955086 301.12,366.13 C300.194028,366.328782 299.22848,366.219939 298.37,365.82 C296.95,364.95 296.85,361.82 295.06,361.61 C293.49,361.43 291.03,364.81 289.97,365.82 Z" id="Shape" fill="#3F3D56"></path>
            <path d="M313.63,390.24 C309.94,386.71 308.32,381.59 305.63,377.24 C303.79827,374.314901 301.458083,371.741034 298.72,369.64 C297.343524,368.730967 296.081159,367.659971 294.96,366.45 C294.01,365.28 293.29,363.72 291.85,363.27 C290.642088,363.007174 289.382156,363.354871 288.48,364.2 C287.598457,365.04009 286.76386,365.928102 285.98,366.86 C281.74,371.25 274.29,371.86 270.93,376.94 C270.02353,378.017044 269.407366,379.30789 269.14,380.69 C268.17261,388.083764 270.084461,395.566477 274.48,401.59 C275.331077,402.986231 276.638005,404.045902 278.18,404.59 C277.97088,406.45459 278.217968,408.34207 278.9,410.09 C280.751563,416.419013 283.026697,422.616332 285.71,428.64 C285.068424,430.99621 284.620269,433.400862 284.37,435.83 C283.67,441.94 284.32,448.14 283.66,454.26 C283.12,459.26 281.66,464.13 281.61,469.14 C281.61,469.94 281.68,470.89 282.37,471.3 C282.737057,471.488579 283.148089,471.57493 283.56,471.55 L295.86,471.92 C303,472.13 310.21,472.34 317.24,471.02 C318.176155,470.881484 319.084227,470.594547 319.93,470.17 C322.31,468.84 323.1,465.84 323.48,463.17 C323.976271,459.706705 324.173665,456.207135 324.07,452.71 C325.56,457.42 327.33,462.29 331.83,464.33 C334.21,465.41 336.93,465.33 339.54,465.26 C345.165484,465.009481 350.771626,464.431838 356.33,463.53 C357.024603,463.616263 357.719009,463.368381 358.201972,462.861763 C358.684934,462.355145 358.899353,461.649688 358.78,460.96 L358.84,455.5 C358.96,444.41 356.21,433.81 355.14,422.77 C354.8,419.29 354.83,415.77 353.98,412.36 C353.63,410.93 353.12,409.53 352.81,408.09 C352.543168,406.68019 352.376086,405.253317 352.31,403.82 L351.53,392.82 C351.16,387.73 350.63,382.82 350.24,377.74 C350.025671,372.793405 349.308646,367.881449 348.1,363.08 C347.23,360.08 345.42,356.68 342.29,356.31 C340.62,356.12 339,356.85 337.41,357.36 C333.501932,358.590339 329.30768,358.572863 325.41,357.31 C324.205754,356.834505 322.950856,356.498971 321.67,356.31 C320.35726,356.13134 319.050131,356.674066 318.25,357.73 C317.861948,358.511275 317.679535,359.3786 317.72,360.25 C317.25,370.24 316.38,380.53 313.63,390.24 Z" id="Shape" fill="#F9F871"></path>
            <path d="M297.54,390.54 C292.93,385.68 288.2,380.73 282.26,377.64 C279.92,376.42 277.26,375.5 274.67,375.96 C272.08,376.42 269.67,378.67 269.79,381.3 C269.87,382.93 270.86,384.37 271.17,385.97 C271.53,387.77 271.01,389.69 271.57,391.43 C272.025054,392.576578 272.705088,393.62043 273.57,394.5 L280.65,402.89 C283.65,406.39 286.65,409.94 290.51,412.36 C294.37,414.78 299.37,415.91 303.61,414.19 C306.626677,412.787858 309.134961,410.485687 310.79,407.6 C312.55,404.8 313.79,401.74 315.44,398.85 C318.008065,394.23227 321.396853,390.121669 325.44,386.72 C323.36,386.18 320.75,385.42 319.44,383.72 C319.067136,383.179554 318.748905,382.603389 318.49,382 L316.87,378.5 C315.756193,378.44195 314.668729,378.851561 313.87,379.63 C313.175309,380.432962 312.430486,381.191145 311.64,381.9 C310.23,382.96 308.32,383.25 307.04,384.46 C306.544747,384.97946 306.096339,385.541644 305.7,386.14 C303.741423,388.714352 300.767089,390.31816 297.54,390.54 Z" id="Shape" fill="#3F3D56"></path>
            <path d="M325.81,369.63 C329.28,363.3 329.12,355.71 330.11,348.56 C330.217216,346.666507 330.88172,344.846948 332.02,343.33 C334.02,341.07 337.55,341.04 340.57,341.33 C341.46,341.43 342.57,341.85 342.52,342.74 C342.449872,343.058904 342.294319,343.352727 342.07,343.59 C339.142882,347.367861 337.421455,351.939748 337.13,356.71 C338.7,357.8 341.13,355.56 342.64,356.71 C343.64,357.55 343.18,359.21 342.58,360.41 C341.186667,363.19 339.75,365.95 338.27,368.69 C337.088589,371.105074 335.547735,373.327005 333.7,375.28 C332.43,376.5 330.94,377.46 329.65,378.66 C326.65,381.47 324.84,385.44 321.74,388.18 C321.4781,388.463746 321.123462,388.644611 320.74,388.69 C320.345595,388.661782 319.973783,388.495351 319.69,388.22 C318.141413,386.960388 316.856836,385.407341 315.91,383.65 C314.73,381.47 314.91,380.83 316.77,379.29 C320.25,376.54 323.64,373.59 325.81,369.63 Z" id="Shape" fill="#BE6F72"></path>
            <path d="M291.74,386.24 C292.34,386.61 293.08,387.03 293.74,386.72 C294.009696,386.556894 294.238798,386.334631 294.41,386.07 C295.553208,384.544408 296.50686,382.885591 297.25,381.13 C297.377897,380.88199 297.449596,380.608852 297.46,380.33 C297.46,379.69 296.89,379.22 296.36,378.85 C293.520097,377.040014 290.466828,375.588956 287.27,374.53 C284.63,373.53 281.87,372.66 279.07,372.91 C276.944076,373.052765 274.968459,374.056826 273.6,375.69 C271.6,378.26 274.95,379.04 277.05,379.97 C281.91,382.18 287.17,383.46 291.74,386.24 Z" id="Shape" fill="#F9F871"></path>
            <path d="M288.59,403.24 C288.521467,403.70291 288.677428,404.170792 289.01,404.5 C289.3,403.08 288.92,401.58 289.22,400.15 C289.66,398 291.75,396.38 291.93,394.22 C288.1,393.47 288.62,400.92 288.59,403.24 Z" id="Shape" fill="#000000" opacity="0.1"></path>
            <polygon id="Shape" fill="#000000" opacity="0.2" points="464.91 325.04 464.91 334.89 424.25 337.36 423.02 327.5"></polygon>
            <path d="M284.77,340.97 C287.31,338.9 285.84,334.56 287.56,331.78 C288.56,330.26 290.25,329.46 291.91,328.78 C293.913437,327.842591 296.059851,327.247679 298.26,327.02 C300.492058,326.805553 302.700339,327.618936 304.26,329.23 C304.91,329.97 305.35,330.87 305.96,331.64 C307.499104,333.47023 309.918871,334.307546 312.26,333.82 C313.59,333.52 314.97,332.51 314.88,331.15 C314.729798,330.322821 314.30742,329.56958 313.68,329.01 L310.82,325.84 C307.57,322.24 303.96,318.42 299.19,317.52 C295.87,316.89 292.47,317.78 289.27,318.85 C287.98,319.28 286.53,319.92 286.17,321.23 C285.93,322.13 286.29,323.11 286.08,324.02 C285.67,325.83 283.35,326.44 282.27,327.96 C281.19,329.48 281.52,331.28 281.21,332.96 C280.9,334.64 280,336.28 279.89,338.02 C279.82,339.07 280.35,341.02 281.53,341.4 C282.71,341.78 284.04,339.72 284.77,340.97 Z" id="Shape" fill="#3F3D56"></path>
            <path d="M313.91,329.71 C313.066809,325.3103 311.248991,321.155287 308.59,317.55 C306.225697,314.181487 302.936582,311.569645 299.12,310.03 C295.254739,308.519564 290.910644,308.862228 287.33,310.96 C284.706329,312.832768 282.66469,315.408214 281.44,318.39 C278.85,323.97 277.89,330.79 280.9,336.15 C282.1,334.69 284.16,335.35 285.98,334.82 C288.26,334.17 290.19,332.65 292.36,331.7 C298.91,328.81 306.91,331.15 313.91,329.71 Z" id="Shape" fill="#FED253"></path>
            <path d="M282.43,329.4 C282.2,327.6 282.05,325.51 283.33,324.23 C283.459003,324.070986 283.655393,323.982055 283.86,323.99 C284.040322,324.048574 284.188598,324.178767 284.27,324.35 C285.008818,325.516062 285.638167,326.747978 286.15,328.03 C284.625045,327.678558 283.039971,328.292774 282.15,329.58" id="Shape" fill="#000000" opacity="0.1"></path>
            <path d="M305.8,324.32 L305.44,320.75 C305.381945,320.455812 305.406167,320.151311 305.51,319.87 C305.822249,319.382219 306.452738,319.209482 306.97,319.47 C307.461966,319.742612 307.867388,320.148034 308.14,320.64 C308.972415,321.917842 309.663156,323.282558 310.2,324.71 C308.589379,324.399713 306.932487,324.420126 305.33,324.77" id="Shape" fill="#000000" opacity="0.1"></path>
            <polygon id="Shape" fill="#000000" opacity="0.1" points="314.75 469.21 314.75 477.37 307.86 477.83 271.62 477.83 271.62 469.21"></polygon>
            <polygon id="Shape" fill="#F1C0C0" points="314.75 469.21 314.75 477.83 271.62 477.83 157.04 334.3 157.04 327.52 181.06 327.52"></polygon>
            <polygon id="Shape" fill="#000000" opacity="0.1" points="314.75 469.21 314.75 477.83 271.62 477.83 157.04 334.3 157.04 327.52 181.06 327.52"></polygon>
            <polygon id="Shape" fill="#000000" opacity="0.1" points="314.75 469.21 314.75 477.83 271.62 477.83 157.04 334.3 157.04 327.52 272.24 469.21"></polygon>
            <path d="M172.06,613.07 C172.21239,613.889986 172.016551,614.7364 171.519481,615.406116 C171.022411,616.075833 170.26898,616.508397 169.44,616.6 C166.66,617.54 163.71,618.47 161.74,620.6 C159.77,622.73 159.38,626.68 161.74,628.41 C162.946343,629.1375 164.331349,629.514914 165.74,629.5 C170.27,629.81 174.99,629.75 179.1,627.83 C182.04,626.47 184.81,624.15 188.04,624.36 C189.71,624.46 191.49,625.24 192.98,624.48 C194.47,623.72 194.89,621.6 194.9,619.83 C194.937951,616.134976 194.380824,612.457937 193.25,608.94 C193.1,608.46 186.74,608.09 185.98,607.94 L178.27,606.94 C176.81,606.75 173.66,605.65 172.51,606.87 C171.36,608.09 172.06,611.62 172.06,613.07 Z" id="Shape" fill="#F9F871"></path>
            <path d="M218.07,588.11 C218.396405,589.910895 218.926475,591.668847 219.65,593.35 C220.72,596.07 222.09,598.96 224.71,600.28 C227.09,601.47 230.01,601.04 232.43,599.91 C233.440022,599.491682 234.325164,598.820076 235,597.96 C235.780655,596.59926 236.129393,595.033424 236,593.47 C236,589.6 235.77,585.6 234,582.16 C232.48,579.16 229.83,576.58 229.79,573.26 L220.68,575.02 C220.192319,575.066887 219.72781,575.250611 219.34,575.55 C219.051347,575.853977 218.850852,576.230771 218.76,576.64 C217.787309,580.382244 217.552944,584.278137 218.07,588.11 Z" id="Shape" fill="#F9F871"></path>
            <path d="M109.28,493.11 C108.9,496.33 109.06,499.78 110.74,502.56 C112.42,505.34 115.96,507.18 119.02,506.07 C119.336733,505.989112 119.607261,505.783511 119.77,505.5 C119.851422,505.162038 119.805125,504.80591 119.64,504.5 C118.289099,500.894763 118.400342,496.904376 119.95,493.38 C120.15,492.92 120.58,492.38 121.05,492.56 C121.246586,492.659564 121.40478,492.821274 121.5,493.02 C121.984102,493.857555 122.226416,494.812966 122.2,495.78 C122.058838,496.656156 122.031946,497.546924 122.12,498.43 C122.31,499.29 123.23,500.1 124.03,499.73 C124.497387,499.442972 124.826386,498.976589 124.94,498.44 C127.17,491.99 126.16,484.94 125.14,478.19 C125.157253,477.876242 125.034409,477.571001 124.804624,477.356664 C124.574839,477.142327 124.261801,477.040988 123.95,477.08 C119.23,476.61 116.65,475.48 113.95,479.87 C111.63,483.57 109.28,488.66 109.28,493.11 Z" id="Shape" fill="#F9F871"></path>
            <path d="M164.46,476.7 C163.06,482.52 161.65,488.41 161.56,494.39 C161.584602,498.114866 161.865263,501.833634 162.4,505.52 L163.45,514.18 C163.81,517.1 164.16,520.01 164.67,522.9 C164.995345,524.388874 165.172873,525.906236 165.2,527.43 C165.101909,528.932149 164.864217,530.421907 164.49,531.88 C163.861172,534.942137 163.509749,538.054741 163.44,541.18 C163.33,546.18 163.95,551.18 164.34,556.18 C165.11858,566.143723 165.001443,576.157216 163.99,586.1 C163.5862,588.783765 164.16885,591.52293 165.63,593.81 C166.22292,594.531149 166.711069,595.332387 167.08,596.19 C167.83,598.48 166.08,600.77 165.63,603.12 C165.030656,606.93565 167.635133,610.515688 171.45,611.12 C179.45,612.07 187.67,611.64 194.88,615.3 C195.64,613.08 193.98,610.56 194.74,608.3 C195.22,606.9 196.54,605.99 197.44,604.81 C198.649092,603.01208 199.251758,600.874717 199.16,598.71 C199.195335,595.884442 198.693081,593.077933 197.68,590.44 C196.83,588.24 195.61,586.07 195.68,583.71 C195.68,582.55 196.09,581.33 195.62,580.26 C195.297675,579.645279 194.859653,579.0986 194.33,578.65 C191.341311,575.375864 189.504723,571.21457 189.1,566.8 C188.710055,562.419076 188.851078,558.007079 189.52,553.66 C190.01,549.52 190.67,545.15 193.3,541.92 C192.080377,532.12592 192.797293,522.187628 195.41,512.67 C195.67,511.79 196.08,510.77 196.98,510.56 C197.705564,510.485641 198.421899,510.76919 198.9,511.32 C200.47,512.79 201.22,514.92 201.9,516.96 C202.65,519.17 203.41,521.53 202.84,523.79 C202.6,524.79 202.12,525.67 201.84,526.63 C201.231647,528.55918 201.33814,530.642893 202.14,532.5 C202.530839,533.178686 202.776045,533.931333 202.86,534.71 C202.767269,535.378713 202.564531,536.027474 202.26,536.63 C201.509888,539.023165 201.811607,541.622311 203.09,543.78 C204.364582,545.903539 205.937275,547.833202 207.76,549.51 C206.88914,553.348112 207.114368,557.353706 208.41,561.07 C208.598835,561.408115 208.645598,561.807402 208.54,562.18 C208.36,562.56 207.9,562.7 207.54,562.97 C206.54,563.79 207.16,565.34 207.83,566.41 C209.666273,569.346893 211.693996,572.159647 213.9,574.83 C215.9,577.22 215.72,581.83 218.7,582.69 C219.95223,582.960455 221.24777,582.960455 222.5,582.69 C225.44,582.24 228.72,581.39 230.16,578.79 C230.75,577.72 230.99,576.42 231.91,575.62 C232.83,574.82 234.02,574.68 234.53,573.72 C235.04,572.76 234.47,571.5 234.64,570.39 C234.81,569.28 235.78,568.39 236.09,567.22 C236.83,564.52 233.68,562.3 233.25,559.54 C232.63,555.54 237.67,552.54 237.46,548.54 C237.02,539.85 236.74,531.12 236.29,522.43 C235.725243,514.645845 235.645088,506.834104 236.05,499.04 C236.4,494.19 237.05,489.11 235.27,484.6 C232.71,478.24 225.65,474.67 218.82,473.99 C211.99,473.31 205.18,474.93 198.41,475.99 C187.174059,477.721616 175.758513,477.960351 164.46,476.7 Z" id="Shape" fill="#3F3D56"></path>
            <circle id="Oval" fill="#FBBEBE" cx="184.76" cy="365.1" r="16.02"></circle>
            <path d="M178.24,384.11 C177.125998,386.703863 174.531006,388.345106 171.71,388.24 C171.13,390.64 172.52,393.06 174.11,394.95 C180.832933,402.773329 191.260598,406.349949 201.37,404.3 C203.301997,403.954091 205.134879,403.189537 206.74,402.06 C208.903869,400.253144 210.356674,397.737311 210.84,394.96 C211.300253,392.201937 211.431171,389.398956 211.23,386.61 C211.286101,386.059249 211.128596,385.507981 210.79,385.07 C210.390091,384.760284 209.895671,384.597832 209.39,384.61 C206.01,384.31 202.48,384.18 199.51,382.52 C196.54,380.86 194.43,377.11 195.86,374.03 C195.63,374.51 189.79,374.74 189.02,374.84 C186.61,375.18 184.2,375.56 181.8,376 C180.64677,376.063306 179.506933,376.278496 178.41,376.64 C176.96,377.39 177.5,377.02 177.84,378.38 C178.35,380.46 179.1,381.95 178.24,384.11 Z" id="Shape" fill="#FBBEBE"></path>
            <path d="M190.43,393.85 C188.272411,393.874882 186.119844,393.636454 184.02,393.14 C181.899822,392.644757 180.03105,391.397725 178.76,389.63 C178.02,388.51 177.54,387.1 176.36,386.47 C174.43,385.47 172.23,387.16 170.69,388.71 C169.287844,390.238631 167.662851,391.546717 165.87,392.59 C163.73,393.72 161.23,394.12 159.21,395.45 C157.631924,396.642383 156.27765,398.104999 155.21,399.77 L141.04,419.07 C135.35,426.83 130.4,435.16 125.33,443.35 C120.94,450.44 118.64,458.6 115.33,466.25 C115.06783,466.718161 114.95939,467.256864 115.02,467.79 C115.14,468.31 115.77,468.73 116.21,468.43 C114.72,469.91 116.03,472.43 115.68,474.51 C115.282124,475.965406 114.452282,477.265957 113.3,478.24 C115.50105,477.952896 117.735552,478.05785 119.9,478.55 C122.136941,479.183986 124.247851,480.198846 126.14,481.55 C127.35,481.36 127.24,479.21 128.14,478.41 C128.68,477.94 129.48,478 130.19,477.86 C132.86,477.34 133.92,474.13 135.97,472.32 C137.68,470.81 140.1,470.32 141.91,468.9 C144.85,466.59 145.48,462.48 147.02,459.07 C148.33,456.18 150.39,453.66 151.54,450.7 C152.29,448.78 152.65,446.7 153.72,444.93 C155.43,442.07 158.65,440.55 161.72,439.18 C163.66,438.31 165.72,437.41 167.81,437.55 C167.7,442.2 167.11,446.78 168.12,451.32 C168.47,452.92 168.96,454.48 169.38,456.07 C171.29,463.23 171.74,470.69 171.83,478.07 C176.424509,477.018691 181.117202,476.455568 185.83,476.39 C189.54,476.28 193.24,476.76 196.95,476.69 C201.35,476.61 205.7,475.76 210.1,475.46 C214.5,475.16 219.1,475.46 222.99,477.46 C222.67415,471.1225 222.85135,464.770037 223.52,458.46 L224.58,448.52 C224.819208,445.632067 225.263664,442.764823 225.91,439.94 C226.49,437.66 227.33,435.46 227.97,433.19 C230.22,425.19 229.81,416.65 229.38,408.32 C229.16,404.04 227.51,399.83 225.57,396.02 C224.867826,394.604774 224.065799,393.241329 223.17,391.94 C218.404918,385.374679 210.605143,381.712635 202.51,382.24 C202.001299,382.255677 201.499738,382.364123 201.03,382.56 C200.185936,383.100447 199.526643,383.885319 199.14,384.81 C197.071023,388.528625 194.069151,391.64423 190.43,393.85 Z" id="Shape" fill="#3F3D56"></path>
            <path d="M170.67,370.41 C171.12,369.41 172.33,369.04 173.07,368.24 C174.49,366.72 173.85,364.29 174.07,362.24 C174.43,359.24 176.92,356.73 179.77,355.66 C182.676431,354.727224 185.769112,354.531354 188.77,355.09 C190.214528,355.195435 191.609961,355.659434 192.83,356.44 C193.35,356.82 193.83,357.31 194.32,357.66 C196.17757,358.78272 198.591564,358.219159 199.76,356.39 C196.22,352.13 192.3,347.63 186.92,346.32 C185.074332,345.943239 183.193572,345.765556 181.31,345.79 C178.82,345.74 176.25,345.7 173.95,346.65 C170.82,347.94 168.62,350.91 167.49,354.11 C166.501807,357.35356 165.973328,360.719667 165.92,364.11 C165.714998,366.372031 165.714998,368.647969 165.92,370.91 C166.306572,373.999151 167.454252,376.943947 169.26,379.48 C169.504134,379.873878 169.849471,380.195042 170.26,380.41 C174.82,382.41 170.3,371.24 170.67,370.41 Z" id="Shape" fill="#3F3D56"></path>
            <path d="M199.24,353.92 C198.69,349.21 195.33,345.32 191.76,342.19 C188.882591,339.476 185.455075,337.41267 181.71,336.14 C177.94,335.03 173.6,335.27 170.37,337.52 C167.77,339.33 166.12,342.21 164.85,345.11 C163.181628,348.532248 162.355342,352.30368 162.44,356.11 C162.69,359.89 164.53,363.72 167.81,365.63 C168.99,363.89 171.04,362.99 173.01,362.28 C181.596169,359.022335 190.352299,356.23159 199.24,353.92 Z" id="Shape" fill="#FED253"></path>
            <path d="M168.91,351.96 C169.23,351.96 169.44,352.29 169.6,352.56 C170.414205,353.828544 171.113643,355.167181 171.69,356.56 C170.52,356.81 168.51,357.09 167.93,356.06 C167.62,355.54 167.99,351.91 168.91,351.96 Z" id="Shape" fill="#000000" opacity="0.1"></path>
            <path d="M191.7,349.7 C191.46,349.93 191.18,349.46 191.18,349.12 L191.18,345.24 C191.173472,345.13212 191.197749,345.024607 191.25,344.93 C191.333795,344.83418 191.452872,344.776445 191.58,344.77 C192.39,344.68 193.06,345.37 193.58,346.03 C194.369117,347.099625 195.055495,348.241356 195.63,349.44 L191.4,349.31" id="Shape" fill="#000000" opacity="0.1"></path>
            <path d="M244.49,413.95 C245.41028,413.076456 246.392871,412.270998 247.43,411.54 C250.2,409.69 253.55,408.96 256.66,407.78 C259.77,406.6 262.93,404.69 264.14,401.59 C264.745726,399.651538 264.943211,397.608592 264.72,395.59 C264.749033,394.744859 264.599089,393.903127 264.28,393.12 C263.899344,392.427929 263.357345,391.837904 262.7,391.4 C258.48,388.28 252.82,388.03 247.58,388.35 C236.027476,389.066412 224.703919,391.893064 214.17,396.69 C213.612923,396.874044 213.124769,397.222726 212.77,397.69 C212.564912,398.123377 212.472066,398.60136 212.5,399.08 C212.313676,402.028965 212.697337,404.986208 213.63,407.79 C215.01,411.35 217.85,414.22 219.04,417.85 C219.58,419.48 219.76,421.21 220.23,422.85 C220.615586,424.543723 221.617142,426.033582 223.04,427.03 C226.99,429.39 230.72,426.22 233.46,423.76 L244.49,413.95 Z" id="Shape" fill="#3F3D56"></path>
            <path d="M192.76,427.8 L187.69,416.74 C186.946623,415.207296 186.305229,413.627195 185.77,412.01 C185.19,410.08 184.91,408.08 184.37,406.14 C182.59,399.68 178.1,394.3 175.91,387.97 C175.771536,387.398447 175.489268,386.871776 175.09,386.44 C174.442889,385.98227 173.625857,385.835717 172.86,386.04 C169.8,386.57 167.41,388.9 164.61,390.22 C163.31,390.82 161.91,391.22 160.61,391.91 C159.295092,392.532767 158.316663,393.69739 157.93,395.1 C157.62,396.63 158.38,398.1 159.02,399.59 C161.74,405.73 162.36,412.59 162.48,419.31 C162.57,423.83 162.34,428.68 159.67,432.31 C154.54,439.31 157.82,449.59 159.74,458.06 C159.97,459.06 160.24,460.14 160.4,461.2 C160.569206,462.526398 160.646058,463.862949 160.63,465.2 C160.63,469.69 160.38,474.32 158.5,478.39 C160.356098,479.377527 162.40175,479.957129 164.5,480.09 C170.306667,480.83 176.136667,481.35 181.99,481.65 C183.823916,481.822441 185.673144,481.728127 187.48,481.37 C191.894162,480.177062 194.936906,476.142029 194.87,471.57 C195.19,474.34 195.78,477.35 197.79,479.27 C199.8,481.19 202.73,481.48 205.46,481.63 C213.164905,482.038632 220.890265,481.821252 228.56,480.98 C229.049552,480.957913 229.530877,480.846055 229.98,480.65 C231.46,479.91 231.54,477.87 231.42,476.23 C231.2,473.16 230.97,470.09 230.6,467.04 C230.286285,465.095592 230.125792,463.129545 230.12,461.16 C230.272488,459.134029 230.607174,457.125914 231.12,455.16 C232.46,448.92 233.52,442.55 233.07,436.16 C232.892156,434.603409 232.828652,433.035876 232.88,431.47 C233.14,427.94 235,424.58 234.65,421.07 C233.65,410.75 232.84,400.16 229.96,390.2 C229.44,388.42 228.78,386.51 227.23,385.49 C225.23,384.15 222.42,384.85 220.13,384 C219.055487,383.499945 218.033727,382.893589 217.08,382.19 C215.007762,380.89402 212.632348,380.163123 210.19,380.07 C208.35,380 206.3,380.41 205.19,381.89 C204.676,382.723264 204.335847,383.651882 204.19,384.62 C202.74,390.72 201.04,396.75 199.34,402.78 L197.71,408.56 L193.34,424.08 C192.91,425.73 193.2,426.24 192.76,427.8 Z" id="Shape" fill="#F9F871"></path>
            <polyline id="Shape" fill="#F1C0C0" points="218.33 367.25 315.06 468.9 315.06 477.52 271.93 477.52 199.24 382.65"></polyline>
            <polyline id="Shape" fill="#000000" opacity="0.1" points="218.33 367.25 315.06 468.9 315.06 477.52 271.93 477.52 199.24 382.65"></polyline>
            <polygon id="Shape" fill="#000000" opacity="0.1" points="200.78 381.31 201.09 381.42 272.55 468.9 315.06 468.9 315.06 477.52 271.93 477.52 199.24 382.65"></polygon>
            <path d="M211.91,383.45 C208.41,384.98 204.52,386.94 203.47,390.62 C203.262702,391.265803 203.218047,391.952796 203.34,392.62 C203.863624,394.226122 205.322897,395.34344 207.01,395.43 C208.656738,395.469906 210.294058,395.170355 211.82,394.55 L232.47,387.73 C233.03,387.55 233.67,387.28 233.81,386.73 C233.845957,386.384113 233.776224,386.035451 233.61,385.73 C232.97,384.17 232.34,380.98 231,379.89 C229.9,379.01 227.72,379.32 226.39,379.34 C221.27,379.38 216.46,381.45 211.91,383.45 Z" id="Shape" fill="#F9F871"></path>
            <path d="M230.32,388.54 C233.798856,388.529866 237.257702,389.066409 240.57,390.13 C243.897136,391.210202 246.843979,393.223357 249.06,395.93 C249.70535,396.686566 250.164301,397.583918 250.4,398.55 C250.6,399.55 253.86,400.15 253.14,400.83 C255.33,400.48 254.81,401.51 257.03,401.49 C259.25,401.47 261.65,400.9 262.98,399.13 C263.904037,397.675928 264.315831,395.954838 264.15,394.24 C264.17915,393.052806 263.954119,391.873102 263.49,390.78 C262.49,388.68 260.19,387.55 258.07,386.58 L240.21,378.41 C239.173942,377.858884 238.061826,377.464589 236.91,377.24 C235.940635,377.148446 234.963841,377.171943 234,377.31 L225.91,378.24 C229.509508,380.569397 231.611926,384.62596 231.44,388.91" id="Shape" fill="#3F3D56"></path>
        </g>
    </g>
</svg>