<?xml version="1.0" encoding="UTF-8" standalone="no"?>
<svg width="930px" height="516px" viewBox="0 0 930 516" version="1.1" xmlns="http://www.w3.org/2000/svg" xmlns:xlink="http://www.w3.org/1999/xlink">
    <!-- Generator: Sketch 50.2 (55047) - http://www.bohemiancoding.com/sketch -->
    <title>Web Design@sndy</title>
    <desc>Created with Sketch.</desc>
    <defs>
        <linearGradient x1="50%" y1="100.005469%" x2="50%" y2="-0.00273369574%" id="linearGradient-1">
            <stop stop-color="#808080" stop-opacity="0.25" offset="0%"></stop>
            <stop stop-color="#808080" stop-opacity="0.12" offset="54%"></stop>
            <stop stop-color="#808080" stop-opacity="0.1" offset="100%"></stop>
        </linearGradient>
        <linearGradient x1="49.9980158%" y1="100.011974%" x2="49.9980158%" y2="3.14375538e-06%" id="linearGradient-2">
            <stop stop-color="#808080" stop-opacity="0.25" offset="0%"></stop>
            <stop stop-color="#808080" stop-opacity="0.12" offset="54%"></stop>
            <stop stop-color="#808080" stop-opacity="0.1" offset="100%"></stop>
        </linearGradient>
        <linearGradient x1="49.9961829%" y1="99.9999929%" x2="49.9961829%" y2="7.11191695e-06%" id="linearGradient-3">
            <stop stop-color="#808080" stop-opacity="0.25" offset="0%"></stop>
            <stop stop-color="#808080" stop-opacity="0.12" offset="54%"></stop>
            <stop stop-color="#808080" stop-opacity="0.1" offset="100%"></stop>
        </linearGradient>
        <linearGradient x1="50.0023585%" y1="100.026536%" x2="50.0023585%" y2="-0.00215558891%" id="linearGradient-4">
            <stop stop-color="#808080" stop-opacity="0.25" offset="0%"></stop>
            <stop stop-color="#808080" stop-opacity="0.12" offset="54%"></stop>
            <stop stop-color="#808080" stop-opacity="0.1" offset="100%"></stop>
        </linearGradient>
    </defs>
    <g id="Page-1" stroke="none" stroke-width="1" fill="none" fill-rule="evenodd">
        <g id="Web-Design">
            <ellipse id="Oval" fill="#F5F5F5" fill-rule="nonzero" cx="465" cy="391.48" rx="465" ry="124.52"></ellipse>
            <g id="yellow-leaf-2" transform="translate(800.000000, 90.000000)">
                <path d="M51.18,0.86 C51.18,0.86 15.35,36.69 35.58,89.86 C55.81,143.03 0.9,231.45 0.9,231.45 C0.9,231.45 1.49,231.36 2.58,231.17 C76.17,218.17 112.74,134.01 71.82,71.48 C56.61,48.24 44.12,21 51.18,0.86 Z" id="Shape" fill="#F9F871" fill-rule="nonzero"></path>
                <path d="M51.18,0.86 C51.18,0.86 30.95,44.78 51.18,80.61 C71.41,116.44 54.65,217 0.9,231.45" id="Shape" stroke="#535461" stroke-width="2"></path>
            </g>
            <g id="yellow-leaf-1" transform="translate(791.000000, 235.000000)">
                <path d="M124,0.79 C124,0.79 83.11,-5.72 79.39,30.92 C75.67,67.56 0.77,72.64 0.77,72.64 L2.17,73.57 C64.01,114.16 123.17,99.43 114.17,45.57 C110.9,25.49 111.17,5.36 124,0.79 Z" id="Shape" fill="#F9F871" fill-rule="nonzero"></path>
                <path d="M124,0.79 C124,0.79 83.11,-5.72 79.39,30.92 C75.67,67.56 0.77,72.64 0.77,72.64 L2.17,73.57 C64.01,114.16 123.17,99.43 114.17,45.57 C110.9,25.49 111.17,5.36 124,0.79 Z" id="Shape" fill="#F5F5F5" fill-rule="nonzero" opacity="0.2"></path>
                <path d="M124,0.79 C124,0.79 92.26,7.79 94.87,36.61 C97.48,65.43 47.74,100.06 0.77,72.61" id="Shape" stroke="#535461" stroke-width="2"></path>
            </g>
            <path d="M820.37,323.92 L756.13,323.92 C757.608339,320.946742 758.375192,317.670501 758.37,314.35 L758.37,21.79 C758.37,9.91035503 748.739645,0.28 736.86,0.28 L239.52,0.28 C233.813461,0.277347029 228.339739,2.54240143 224.303668,6.57659651 C220.267598,10.6107916 217.999999,16.0834603 218,21.79 L218,314.36 C217.994808,317.680501 218.761661,320.956742 220.24,323.93 L153.73,323.93 C150.5875,323.93 148.04,326.4775 148.04,329.62 L148.04,334.21 C148.056558,351.771984 162.298008,366.000008 179.86,366 L794.24,366 C811.813701,366 826.06,351.753701 826.06,334.18 L826.06,329.59 C826.048982,326.455313 823.504706,323.919981 820.37,323.92 Z M424.48,342.12 L419,335.87 L555.72,335.87 L549.62,342.13 L424.48,342.12 Z" id="Shape" fill="url(#linearGradient-1)" fill-rule="nonzero"></path>
            <g id="Group-3" transform="translate(109.000000, 4.000000)" fill-rule="nonzero">
                <rect id="Rectangle-path" fill="#535461" x="115.11" y="0.42" width="528.12" height="327.99" rx="23.26"></rect>
                <rect id="Rectangle-path" fill="#FFFFFF" x="126.22" y="48.23" width="504.77" height="267.95"></rect>
                <circle id="Oval" fill="#FFFFFF" cx="378.61" cy="24.88" r="4.45"></circle>
                <path d="M456.55,316.73 L439.2,334.52 L316.9,334.52 L301.23,316.73 L52.29,316.73 C49.2192968,316.73 46.73,319.219297 46.73,322.29 L46.73,326.77 C46.73,343.946056 60.6539443,357.87 77.83,357.87 L678.28,357.87 C695.456056,357.87 709.38,343.946056 709.38,326.77 L709.38,322.29 C709.38,319.219297 706.890703,316.73 703.82,316.73 L456.55,316.73 Z" id="Shape" fill="#535461"></path>
                <path d="M283.41,57.65 L70.48,57.65 C59.7088222,57.6389456 50.9665569,66.3588293 50.95,77.13 L50.95,372.13 C50.9665569,382.901171 59.7088222,391.621054 70.48,391.61 L283.41,391.61 C294.181178,391.621054 302.923443,382.901171 302.94,372.13 L302.94,77.13 C302.923443,66.3588293 294.181178,57.6389456 283.41,57.65 Z" id="Shape" fill="url(#linearGradient-2)"></path>
                <rect id="Rectangle-path" fill="#535461" x="53.94" y="61.65" width="246" height="327" rx="20"></rect>
                <rect id="Rectangle-path" fill="#FFFFFF" x="66.44" y="92.58" width="221" height="265.14"></rect>
                <circle id="Oval" fill="#FFFFFF" cx="175.94" cy="76.65" r="3"></circle>
                <circle id="Oval" fill="#FFFFFF" cx="175.94" cy="372.65" r="9"></circle>
                <path d="M121.11,157.65 L11.78,157.65 C8.91300825,157.644691 6.16133247,158.77851 4.13031242,160.802028 C2.09929238,162.825547 0.955299426,165.573008 0.95,168.44 L0.95,407.86 C0.955299426,410.726992 2.09929238,413.474453 4.13031242,415.497972 C6.16133247,417.52149 8.91300825,418.655309 11.78,418.65 L121.11,418.65 C123.976992,418.655309 126.728668,417.52149 128.759688,415.497972 C130.790708,413.474453 131.934701,410.726992 131.94,407.86 L131.94,168.44 C131.934701,165.573008 130.790708,162.825547 128.759688,160.802028 C126.728668,158.77851 123.976992,157.644691 121.11,157.65 Z" id="Shape" fill="url(#linearGradient-3)"></path>
                <rect id="Rectangle-path" fill="#535461" x="1.94" y="159.65" width="129" height="258" rx="11"></rect>
                <rect id="Rectangle-path" fill="#FFFFFF" x="11.44" y="183.65" width="110" height="210"></rect>
                <circle id="Oval" fill="#FFFFFF" cx="53.44" cy="171.65" r="1"></circle>
                <rect id="Rectangle-path" fill="#FFFFFF" x="58.44" y="170.65" width="22" height="2" rx="1"></rect>
                <circle id="Oval" fill="#FFFFFF" cx="65.94" cy="403.65" r="7"></circle>
            </g>
            <g id="plant" transform="translate(66.000000, 265.000000)">
                <path d="M31.73,175.25 C31.73,175.25 18.47,130.25 34.22,97.11 C40.9244631,83.2576114 42.9527065,67.6036426 40,52.5 C38.5401747,45.3452941 36.4280163,38.3393554 33.69,31.57" id="Shape" stroke="#535461" stroke-width="2"></path>
                <path d="M43.45,10.63 C43.45,16.15 33.45,32.14 33.45,32.14 C33.45,32.14 23.45,16.14 23.45,10.63 C23.45,5.1071525 27.9271525,0.63 33.45,0.63 C38.9728475,0.63 43.45,5.1071525 43.45,10.63 Z" id="Shape" fill="#F9F871" fill-rule="nonzero"></path>
                <path d="M60,41.19 C57,45.82 39.92,53.82 39.92,53.82 C39.92,53.82 40.23,34.96 43.23,30.33 C45.0883767,27.1522622 48.5423845,25.252506 52.2212585,25.3846727 C55.9001325,25.5168395 59.208911,27.6595547 60.834465,30.9624559 C62.4600191,34.265357 62.1394579,38.1942861 60,41.19 Z" id="Shape" fill="#F9F871" fill-rule="nonzero"></path>
                <path d="M59.24,93.4 C54.31,95.88 35.53,94.17 35.53,94.17 C35.53,94.17 45.32,78.05 50.24,75.57 C55.1210987,73.364619 60.8731356,75.3967408 63.2856393,80.1788591 C65.6981429,84.9609775 63.914354,90.7948051 59.24,93.41 L59.24,93.4 Z" id="Shape" fill="#F9F871" fill-rule="nonzero"></path>
                <path d="M49.8,132.79 C45.36,136.07 26.56,137.55 26.56,137.55 C26.56,137.55 33.48,120.01 37.92,116.73 C42.3573044,113.769596 48.3370791,114.813179 51.5093298,119.101592 C54.6815805,123.390005 53.9294163,129.413377 49.8,132.79 Z" id="Shape" fill="#F9F871" fill-rule="nonzero"></path>
                <path d="M18.91,54.89 C22.91,58.73 41.3,62.72 41.3,62.72 C41.3,62.72 36.79,44.41 32.83,40.57 C30.3104852,37.8809687 26.5162745,36.7954643 22.9557743,37.7450342 C19.3952742,38.694604 16.6455123,41.5253574 15.7996697,45.1119149 C14.953827,48.6984723 16.1489839,52.4595832 18.91,54.9 L18.91,54.89 Z" id="Shape" fill="#F9F871" fill-rule="nonzero"></path>
                <path d="M8.45,101.09 C13.38,103.57 32.16,101.86 32.16,101.86 C32.16,101.86 22.37,85.74 17.45,83.26 C14.2428782,81.4656882 10.3099954,81.5750336 7.20752487,83.5447701 C4.10505438,85.5145066 2.33294567,89.0272199 2.59239135,92.6929903 C2.85183703,96.3587608 5.10102858,99.5868657 8.45,101.1 L8.45,101.09 Z" id="Shape" fill="#F9F871" fill-rule="nonzero"></path>
                <path d="M4.45,147.39 C8.89,150.67 27.69,152.15 27.69,152.15 C27.69,152.15 20.77,134.61 16.33,131.33 C11.8926956,128.369596 5.91292086,129.413179 2.74067019,133.701592 C-0.43158047,137.990005 0.320583715,144.013377 4.45,147.39 Z" id="Shape" fill="#F9F871" fill-rule="nonzero"></path>
            </g>
            <path d="M889,297.1 C877.93,283.67 864.52,268.24 866.4,250.37 C867.92,235.9 864.28,222.52 865,208 C866,187.37 861.86,171.22 847,158 C838.32,150.27 823.81,144.2 819.49,145.75 C810.93,148.81 801.59,147.64 792.78,149.75 C786.09,151.31 781.64,153.75 778.88,156.75 C773.33,161.75 773.24,168.75 775.77,176.2 C771.304469,184.378053 770.522021,194.06775 773.617487,202.856357 C776.712954,211.644963 783.395074,218.705539 792,222.28 C785.83,224.86 780.5,230.8 778.42,242.86 C776.974124,251.142179 774.788711,259.278072 771.89,267.17 C770.586967,267.779076 769.251645,268.316543 767.89,268.78 C768.19,268.9 768.5,268.98 768.8,269.09 C768.15,269.34 767.51,269.59 766.8,269.81 C767.982493,270.271853 769.204063,270.626611 770.45,270.87 C762.45,291.08 752.45,303.6 752.45,303.6 C752.45,303.6 733.8,307.72 726.55,300.51 C726.55,300.51 727.73,301.89 729.33,303.96 C722.24,301.02 710.6,296.22 700.65,292.27 C693.43,289.4 691.58,292.27 691.65,296.27 C689.888008,296.491104 688.188016,297.062301 686.65,297.95 C684.517206,296.577522 682.280393,295.373856 679.96,294.35 C675.82,293.35 662.35,286.11 648.88,310.82 C641.04,325.19 620.94,351.42 605.49,370.82 C575.44,384.64 536.32,402.14 521.78,406.54 L512.46,406.54 C511.24,404.54 510.39,403.28 510.39,403.28 L509.67,403.76 L509.36,403.28 C509.36,403.28 491.06,415.95 472.48,416.05 C469.837292,416.013747 467.207195,415.678275 464.64,415.05 C456.1,412.9 450.08,411.94 445.78,412.05 C440.69,411.96 437.78,413.17 436.02,415.45 C435.783507,415.74915 435.566397,416.063124 435.37,416.39 C435.172966,416.71385 434.992728,417.047625 434.83,417.39 C434.67,417.75 434.51,418.13 434.37,418.52 C434.252832,419.224628 434.466784,419.943948 434.95,420.47 C435.199139,420.819704 435.469654,421.153674 435.76,421.47 L436.28,422.03 C438.62,424.45 442.88,427.66 448.18,431.24 C449.71,432.24 451.33,433.34 453.02,434.43 L456.23,436.43 L459.1,438.22 L460.25,438.93 L461.53,439.71 L463.82,441.1 L465.18,441.92 L467.75,443.45 L469.83,444.68 C475.27,447.89 480.69,451 485.58,453.76 L489,455.8 L489.33,455.98 L491.53,457.21 L495.33,459.32 L497.94,460.76 L499.16,461.43 L500.47,462.15 L500.73,462.29 L503.01,463.53 C503.959239,463.689415 504.930768,463.426444 505.67,462.81 C506.33,460.01 507.94,454.01 509.67,453.55 C511.4,453.09 518.89,440 521,431.24 L541.22,431.24 C545.203015,430.899536 549.158613,430.291496 553.06,429.42 C547.84,433.14 542.67,435.48 538.65,434.48 C530.15,432.37 522.1,437.55 521.29,442.66 C521.29,442.77 521.22,442.87 521.19,442.98 C521.16,443.09 521.14,443.19 521.12,443.29 C521.1,443.39 521.06,443.54 521.04,443.67 C521.02,443.8 521.04,443.88 521.04,443.99 C521.04,444.1 521.04,444.24 521.04,444.37 C521.04,444.5 521.04,444.58 521.04,444.68 C521.04,444.78 521.04,444.94 521.04,445.07 C521.04,445.2 521.04,445.27 521.04,445.37 C521.04,445.47 521.1,445.64 521.14,445.78 C521.18,445.92 521.14,445.96 521.21,446.04 C521.273127,446.220733 521.346581,446.397691 521.43,446.57 L521.48,446.7 C521.592142,446.918425 521.719106,447.128917 521.86,447.33 L522.02,447.54 C522.12,447.68 522.23,447.82 522.35,447.95 L522.58,448.18 C522.7,448.3 522.83,448.42 522.96,448.54 L523.24,448.77 L523.69,449.1 L524.02,449.32 L524.56,449.64 L524.92,449.83 L525.6,450.15 L525.94,450.3 C526.3,450.45 526.68,450.59 527.09,450.72 C527.74,450.93 528.51,451.15 529.38,451.37 L530.25,451.58 L531.52,451.87 L532.19,452.02 C533.056667,452.206667 533.976667,452.393333 534.95,452.58 L536.3,452.83 L537.4,453.03 L539.93,453.47 C541.51,453.74 543.16,454.01 544.93,454.27 L549.29,454.93 L554.97,455.74 L556.23,455.91 L558.23,456.19 L561.16,456.58 L563.16,456.84 L568.35,457.5 L569.97,457.7 L573.24,458.1 C577.54,458.62 581.7,459.1 585.53,459.53 L589.96,460.03 L592.2,460.28 L593.2,460.38 L595.88,460.67 L597.37,460.83 L599.21,461.02 L601.8,461.29 L602.08,461.29 L603.74,461.46 C604.160514,461.504903 604.580587,461.371404 604.898029,461.091978 C605.215471,460.812553 605.401188,460.412813 605.41,459.99 C605.41,459.94 605.41,459.88 605.41,459.82 C605.562516,459.588099 605.645769,459.317527 605.65,459.04 C605.693528,456.573487 606.005364,454.119036 606.58,451.72 C606.69,451.31 606.82,450.89 606.96,450.47 L607.12,449.99 C607.3,449.48 607.48,448.99 607.69,448.44 C607.840506,448.067327 607.970697,447.686769 608.08,447.3 C608.08,447.18 608.15,447.06 608.19,446.93 C608.23,446.8 608.29,446.52 608.33,446.31 C610.41,439.2 607.9,425.94 607.18,420.73 C606.949036,419.065539 606.567471,417.425478 606.04,415.83 C606.16969,415.842705 606.30031,415.842705 606.43,415.83 C607.503791,415.435105 608.514385,414.886015 609.43,414.2 C624.71,408.75 637.59,402.52 641.66,396.28 C648.251434,394.540141 655.251734,395.272896 661.34,398.34 C669.25,402.27 729.09,421.8 756.95,430.82 C761.95,435.13 765.87,437.65 768.04,437.46 C768.04,437.46 803.51,443.2 817.77,432 C819.04,432.88 819.84,433.35 819.84,433.35 C819.84,433.35 840.56,423.06 843.67,409.67 C844.67,405.33 845.58,398.93 846.51,391.85 C851.316683,387.006996 854.018927,380.463399 854.03,373.64 C854.68,351.16 863.39,325.48 869.85,302.64 C877.69,303.26 880.72,301.78 887.91,298.23 L887.59,297.82 C888.1,297.52 888.55,297.32 889,297.1 Z M770.21,330.77 L766.21,329.44 C767.551673,327.64861 768.707624,325.725375 769.66,323.7 L770.21,330.77 Z M747.92,340.23 L771.92,354.63 L772.13,357.56 C771.837509,359.789637 771.905036,362.05178 772.33,364.26 C761.75,354.86 749.37,343.45 747.91,340.22 L747.92,340.23 Z M738.12,319.23 C735.5,318.15 733.33,317.17 731.84,316.36 C733.84,316.5 735.74,316.62 737.4,316.71 C737.728062,317.522305 737.969401,318.366991 738.12,319.23 Z M673.84,342.7 C673.84,342.7 677.98,333.44 687.31,348.88 C688.76,351.28 691.43,355.1 694.96,359.83 L667.8,356.2 C671,351.24 673.15,346.63 673.84,342.71 L673.84,342.7 Z" id="Shape" fill="url(#linearGradient-4)" fill-rule="nonzero"></path>
            <g id="Group-2" transform="translate(442.000000, 148.000000)" fill-rule="nonzero">
                <path d="M291.5,157.5 C291.5,157.5 272.5,149.5 257.5,143.5 C242.5,137.5 251.5,157.5 251.5,157.5 C251.5,157.5 276.5,164.5 276.5,165.5 C276.5,166.5 297.5,167.5 297.5,167.5 L291.5,157.5 Z" id="Shape" fill="#F7C4A7"></path>
                <path d="M291.5,157.5 C291.5,157.5 272.5,149.5 257.5,143.5 C242.5,137.5 251.5,157.5 251.5,157.5 C251.5,157.5 276.5,164.5 276.5,165.5 C276.5,166.5 297.5,167.5 297.5,167.5 L291.5,157.5 Z" id="Shape" fill="#000000" opacity="0.05"></path>
                <path d="M372.5,78.5 C372.5,78.5 338.5,60.5 332.5,95.5 C326.5,130.5 307.5,154.5 307.5,154.5 C307.5,154.5 289.5,158.5 282.5,151.5 C282.5,151.5 299.5,171.5 291.5,173.5 C291.5,173.5 309.5,186.5 317.5,182.5 C325.5,178.5 331.5,151.5 334.5,144.5 C337.5,137.5 348.5,76.5 372.5,78.5 Z" id="Shape" fill="#575988"></path>
                <path d="M372.5,78.5 C372.5,78.5 338.5,60.5 332.5,95.5 C326.5,130.5 307.5,154.5 307.5,154.5 C307.5,154.5 289.5,158.5 282.5,151.5 C282.5,151.5 299.5,171.5 291.5,173.5 C291.5,173.5 309.5,186.5 317.5,182.5 C325.5,178.5 331.5,151.5 334.5,144.5 C337.5,137.5 348.5,76.5 372.5,78.5 Z" id="Shape" fill="#000000" opacity="0.1"></path>
                <path d="M353.5,66.5 C353.5,66.5 374.5,90.5 375.5,110.5 C376.5,130.5 399.5,89.5 401.5,88.5 C403.5,87.5 381.5,53.5 379.5,42.5 C377.5,31.5 353.5,66.5 353.5,66.5 Z" id="Shape" fill="#F7C4A7"></path>
                <polygon id="Shape" fill="#F7C4A7" points="368 76.75 354.75 88.75 361 114 378 98 376 82"></polygon>
                <polygon id="Shape" fill="#F7C4A7" points="91.5 254.5 68.5 254.5 77.5 276.5 99.5 270.5"></polygon>
                <path d="M73.82,251.33 C73.82,251.33 50,267.92 29.65,262.76 C9.3,257.6 3.77,259.53 1.4,266.19 C-0.79,272.32 58.24,304.74 67.65,309.86 C67.9458584,310.021998 68.3004149,310.036465 68.6084875,309.899108 C68.9165601,309.76175 69.1427662,309.488345 69.22,309.16 C69.86,306.44 71.41,300.61 73.07,300.16 C75.23,299.58 85.07,281.16 84.53,273.92 C83.99,266.68 73.82,251.33 73.82,251.33 Z" id="Shape" fill="#000000" opacity="0.1"></path>
                <path d="M72.82,251.33 C72.82,251.33 49,267.92 28.65,262.76 C8.3,257.6 2.77,259.53 0.4,266.19 C-1.79,272.32 57.24,304.74 66.65,309.86 C66.9458584,310.021998 67.3004149,310.036465 67.6084875,309.899108 C67.9165601,309.76175 68.1427662,309.488345 68.22,309.16 C68.86,306.44 70.41,300.61 72.07,300.16 C74.23,299.58 84.07,281.16 83.53,273.92 C82.99,266.68 72.82,251.33 72.82,251.33 Z" id="Shape" fill="#F3B5B7"></path>
                <path d="M269.5,211.5 L202.5,202.5 C202.5,202.5 93.5,254.5 80.5,255.5 L83.5,278.5 L103.5,278.5 C111.5,278.5 189.5,261.5 200.5,244.5 C206.863829,242.808048 213.627949,243.520061 219.5,246.5 C229.5,251.5 325.5,282.5 325.5,282.5 L269.5,211.5 Z" id="Shape" fill="#575988"></path>
                <path d="M269.5,211.5 L202.5,202.5 C202.5,202.5 93.5,254.5 80.5,255.5 L83.5,278.5 L103.5,278.5 C111.5,278.5 189.5,261.5 200.5,244.5 C206.863829,242.808048 213.627949,243.520061 219.5,246.5 C229.5,251.5 325.5,282.5 325.5,282.5 L269.5,211.5 Z" id="Shape" fill="#000000" opacity="0.1"></path>
                <polygon id="Shape" fill="#F7C4A7" points="150.5 242.5 139.5 256.5 150.5 262.5 166.5 250.5"></polygon>
                <path d="M341.5,226.5 C341.5,226.5 305.5,195.68 303.01,190.09 C300.52,184.5 241.5,146.5 237.5,145.5 C233.5,144.5 220.5,137.5 207.5,161.5 C194.5,185.5 146.5,243.5 146.5,243.5 C146.5,243.5 161.5,264.5 166.5,263.5 C171.5,262.5 227.5,215.5 231.5,192.5 C231.5,192.5 235.5,183.5 244.5,198.5 C253.5,213.5 311.5,285.5 322.5,284.5 C322.5,284.5 365.5,291.5 374.5,274.5 C383.5,257.5 341.5,226.5 341.5,226.5 Z" id="Shape" fill="#575988"></path>
                <path d="M362,80 C362,80 349.5,85.5 348.5,108.5 C347.5,131.5 325.5,170.5 325.5,170.5 L327.5,216.5 C327.5,216.5 351.5,240.5 353.5,255.5 C355.5,270.5 372.5,280.5 372.5,280.5 C372.5,280.5 392.5,270.5 395.5,257.5 C398.5,244.5 400.5,212.5 405.5,200.5 C410.5,188.5 407.5,113.5 407.5,113.5 L392.5,87.5 L384.5,78.5 L363.5,102.5 C363.5,102.5 352,87 362,80 Z" id="Shape" fill="#DDDBE2"></path>
                <path d="M332.5,201.5 C332.5,201.5 329.5,165.5 338.5,157.5 L356.5,106.5 C356.5,106.5 363,82 362,80 C361,78 338.5,99.5 338.5,99.5 L323.5,152.5 L327.5,208.5 L332.5,201.5 Z" id="Shape" fill="#000000" opacity="0.1"></path>
                <path d="M331.5,201.5 C331.5,201.5 328.5,165.5 337.5,157.5 L355.5,106.5 C355.5,106.5 362.5,81.5 361.5,79.5 C360.5,77.5 337.5,99.5 337.5,99.5 L322.5,152.5 L326.5,208.5 L331.5,201.5 Z" id="Shape" fill="#575988"></path>
                <path d="M338.5,185.5 C338.5,185.5 288.5,169.5 285.5,165.5 C282.5,161.5 250.5,135.5 239.5,153.5 C228.5,171.5 280.5,176.5 280.5,176.5 L333.5,208.5 L338.5,185.5 Z" id="Shape" fill="#F7C4A7"></path>
                <path d="M152.67,256.41 L137.87,253.75 C137.87,253.75 113.63,284.8 101,281.65 C88.37,278.5 76.75,292.09 90.09,296.45 C102.14,300.39 154.18,305.9 164.09,306.92 C164.495601,306.961994 164.900282,306.832451 165.206099,306.562724 C165.511915,306.292998 165.690996,305.90767 165.7,305.5 C165.776129,301.634856 166.55551,297.815886 168,294.23 C170.67,287.68 168,273.61 167.26,268.23 C166.85224,265.076456 165.865703,262.025309 164.35,259.23 L152.67,256.41 Z" id="Shape" fill="#000000" opacity="0.1"></path>
                <path d="M152.42,257.38 L137.62,254.72 C137.62,254.72 113.38,285.77 100.77,282.63 C88.16,279.49 76.52,293.07 89.86,297.43 C101.91,301.37 153.95,306.88 163.86,307.9 C164.265601,307.941994 164.670282,307.812451 164.976099,307.542724 C165.281915,307.272998 165.460996,306.88767 165.47,306.48 C165.518674,302.6238 166.267499,298.808521 167.68,295.22 C170.35,288.67 167.68,274.6 166.94,269.22 C166.53224,266.066456 165.545703,263.015309 164.03,260.22 L152.42,257.38 Z" id="Shape" fill="#F3B5B7"></path>
                <circle id="Oval" fill="#000000" opacity="0.1" cx="361" cy="46" r="32"></circle>
                <circle id="Oval" fill="#F7C4A7" cx="358" cy="46" r="32"></circle>
                <path d="M389.5,77.5 C389.5,77.5 427.5,90.5 427.5,117.5 C427.5,144.5 406.5,187.5 405.5,222.5 C404.5,257.5 349.5,252.5 349.5,252.5 C349.5,252.5 341.5,134.5 349.5,125.5 C357.5,116.5 393.5,81.5 389.5,77.5 Z" id="Shape" fill="#575988"></path>
                <path d="M382.5,133.5 C382.5,133.5 368.5,195.5 335.5,184.5 C335.5,184.5 318.5,209.5 330.5,220.5 C330.5,220.5 359.5,227.5 378.5,208.5 C397.5,189.5 411.5,182.5 414.5,159.5 C417.5,136.5 419.5,104.5 409.5,107.5 C399.5,110.5 382.5,133.5 382.5,133.5 Z" id="Shape" fill="#000000" opacity="0.1"></path>
                <path d="M383.5,132.5 C383.5,132.5 369.5,194.5 336.5,183.5 C336.5,183.5 319.5,208.5 331.5,219.5 C331.5,219.5 360.5,226.5 379.5,207.5 C398.5,188.5 412.5,181.5 415.5,158.5 C418.5,135.5 420.5,103.5 410.5,106.5 C400.5,109.5 383.5,132.5 383.5,132.5 Z" id="Shape" fill="#575988"></path>
                <path d="M168.54,292 C168.54,292.09 168.48,292.2 168.45,292.28 C167.761306,293.989978 167.235639,295.761175 166.88,297.57 C167.12,296.79 167.4,295.99 167.72,295.19 C168.113442,294.16121 168.388545,293.090993 168.54,292 Z" id="Shape" fill="#DDDBE2"></path>
                <path d="M90.59,294.51 C86.47,293.16 84.74,290.94 84.67,288.6 C82.97,291.86 84.04,295.52 89.86,297.42 C101.91,301.36 153.96,306.87 163.86,307.89 C164.267302,307.932117 164.67357,307.801257 164.97972,307.529335 C165.285869,307.257413 165.463758,306.869426 165.47,306.46 C165.48486,305.699113 164.916527,305.052688 164.16,304.97 C153.3,303.81 102.48,298.39 90.59,294.51 Z" id="Shape" fill="#DDDBE2"></path>
                <path d="M1.78,264.43 C2.04519747,263.693157 2.38004596,262.983278 2.78,262.31 C1.70251567,263.40059 0.897394003,264.729897 0.43,266.19 C-1.76,272.32 57.27,304.74 66.68,309.86 C66.9772548,310.021929 67.333234,310.035123 67.6416604,309.895643 C67.9500867,309.756164 68.1752767,309.480148 68.25,309.15 C68.3643289,308.676234 68.1471888,308.184596 67.72,307.95 C57.32,302.26 -0.38,270.49 1.78,264.43 Z" id="Shape" fill="#DDDBE2"></path>
                <path d="M73.44,298.41 C72.91,298.55 72.39,299.26 71.9,300.23 L72.06,300.17 C72.5,300.05 73.25,299.17 74.16,297.87 C73.965648,298.103951 73.7190117,298.288928 73.44,298.41 Z" id="Shape" fill="#DDDBE2"></path>
                <path d="M353.56,74.17 C350.74,80.39 350.15,87.4 348.08,93.92 C343.97,106.85 333.66,117.55 321.31,121.68 C331.7,125.82 343.96,120.76 351.99,112.36 C360.02,103.96 364.73,92.78 369.24,81.9 C380.9,89.74 379.48,107.76 383.4,121.79 C386.803885,134.140531 395.394442,144.409075 406.95,149.94 C418.47574,155.111691 431.712946,154.84379 443.02,149.21 C432.33,136.21 417.11,118.28 418.92,100.92 C420.39,86.86 410.3,76.12 410.99,62.01 C411.99,42.01 404.33,31.85 389.99,19.01 C381.61,11.5 394.8,0.91 383.99,4.01 C379.74,5.23 375.26,0.68 371.09,2.18 C362.83,5.18 353.81,4.02 345.31,6.02 C301.13,16.4 357.68,65.09 353.56,74.17 Z" id="Shape" fill="#000000" opacity="0.1"></path>
                <path d="M354.56,73.17 C351.74,79.39 351.15,86.4 349.08,92.92 C344.97,105.85 334.66,116.55 322.31,120.68 C332.7,124.82 344.96,119.76 352.99,111.36 C361.02,102.96 365.73,91.78 370.24,80.9 C381.9,88.74 380.48,106.76 384.4,120.79 C387.803885,133.140531 396.394442,143.409075 407.95,148.94 C419.47574,154.111691 432.712946,153.84379 444.02,148.21 C433.33,135.21 419.11,120.28 420.92,102.92 C422.39,88.86 420.2,74.41 420.92,60.31 C421.92,40.31 412.11,20.99 397.76,8.15 C389.38,0.64 376.29,-0.32 372.11,1.15 C363.85,4.15 354.83,2.99 346.33,4.99 C302.13,15.4 358.68,64.09 354.56,73.17 Z" id="Shape" fill="#FC6681"></path>
            </g>
        </g>
    </g>
</svg>