<?xml version="1.0" encoding="UTF-8" standalone="no"?>
<svg width="888px" height="570px" viewBox="0 0 888 570" version="1.1" xmlns="http://www.w3.org/2000/svg" xmlns:xlink="http://www.w3.org/1999/xlink">
    <!-- Generator: Sketch 50.2 (55047) - http://www.bohemiancoding.com/sketch -->
    <title>Web Development@sndy</title>
    <desc>Created with Sketch.</desc>
    <defs></defs>
    <g id="Page-1" stroke="none" stroke-width="1" fill="none" fill-rule="evenodd">
        <g id="Web-Development" fill-rule="nonzero">
            <g id="Group-5" transform="translate(276.000000, 0.000000)">
                <rect id="Rectangle-path" fill="#E6E6E6" x="0.41138" y="0.34664" width="611.46146" height="391.60712"></rect>
                <rect id="Rectangle-path" fill="#FFFFFF" x="17.89598" y="49.46394" width="576.49225" height="319.32231"></rect>
                <rect id="Rectangle-path" fill="#F9F871" x="0.1503" y="0" width="611.46146" height="25.97712"></rect>
                <circle id="Oval" fill="#FFFFFF" cx="19.45441" cy="13.28088" r="4.81466"></circle>
                <circle id="Oval" fill="#FFFFFF" cx="37.72965" cy="13.28088" r="4.81466"></circle>
                <circle id="Oval" fill="#FFFFFF" cx="56.00489" cy="13.28088" r="4.81466"></circle>
                <path d="M431.26687,79.3726 L243.57973,79.3726 C242.750992,79.2633851 242.131514,78.5569131 242.131514,77.72101 C242.131514,76.8851069 242.750992,76.1786349 243.57973,76.06942 L431.26687,76.06942 C432.095608,76.1786349 432.715086,76.8851069 432.715086,77.72101 C432.715086,78.5569131 432.095608,79.2633851 431.26687,79.3726 Z" id="Shape" fill="#CCCCCC"></path>
                <path d="M301.21822,97.54004 L181.88628,97.54004 C181.057559,97.430808 180.438102,96.7243435 180.438102,95.888455 C180.438102,95.0525665 181.057559,94.346102 181.88628,94.23687 L301.21822,94.23687 C302.046941,94.346102 302.666398,95.0525665 302.666398,95.888455 C302.666398,96.7243435 302.046941,97.430808 301.21822,97.54004 Z" id="Shape" fill="#CCCCCC"></path>
                <path d="M431.26687,97.87037 L311.93492,97.87037 C311.106199,97.761138 310.486742,97.0546735 310.486742,96.218785 C310.486742,95.3828965 311.106199,94.676432 311.93492,94.5672 L431.26692,94.5672 C432.095641,94.676432 432.715098,95.3828965 432.715098,96.218785 C432.715098,97.0546735 432.095641,97.761138 431.26692,97.87037 L431.26687,97.87037 Z" id="Shape" fill="#CCCCCC"></path>
                <path d="M301.50786,115.70751 L182.17592,115.70751 C181.347199,115.598278 180.727742,114.891814 180.727742,114.055925 C180.727742,113.220036 181.347199,112.513572 182.17592,112.40434 L301.50786,112.40434 C302.336581,112.513572 302.956038,113.220036 302.956038,114.055925 C302.956038,114.891814 302.336581,115.598278 301.50786,115.70751 Z" id="Shape" fill="#CCCCCC"></path>
                <path d="M301.7975,133.87497 L182.46556,133.87497 C181.636839,133.765738 181.017382,133.059274 181.017382,132.223385 C181.017382,131.387496 181.636839,130.681032 182.46556,130.5718 L301.7975,130.5718 C302.626221,130.681032 303.245678,131.387496 303.245678,132.223385 C303.245678,133.059274 302.626221,133.765738 301.7975,133.87497 Z" id="Shape" fill="#CCCCCC"></path>
                <path d="M355.9603,115.70751 L321.78271,115.70751 C320.953989,115.598278 320.334532,114.891814 320.334532,114.055925 C320.334532,113.220036 320.953989,112.513572 321.78271,112.40434 L355.9603,112.40434 C356.789021,112.513572 357.408478,113.220036 357.408478,114.055925 C357.408478,114.891814 356.789021,115.598278 355.9603,115.70751 Z" id="Shape" fill="#CCCCCC"></path>
                <path d="M355.9603,133.54465 L321.78271,133.54465 C320.953989,133.435418 320.334532,132.728954 320.334532,131.893065 C320.334532,131.057176 320.953989,130.350712 321.78271,130.24148 L355.9603,130.24148 C356.789021,130.350712 357.408478,131.057176 357.408478,131.893065 C357.408478,132.728954 356.789021,133.435418 355.9603,133.54465 Z" id="Shape" fill="#CCCCCC"></path>
                <path d="M413.30915,133.54465 L379.13155,133.54465 C378.302829,133.435418 377.683372,132.728954 377.683372,131.893065 C377.683372,131.057176 378.302829,130.350712 379.13155,130.24148 L413.30915,130.24148 C414.137871,130.350712 414.757328,131.057176 414.757328,131.893065 C414.757328,132.728954 414.137871,133.435418 413.30915,133.54465 Z" id="Shape" fill="#CCCCCC"></path>
                <path d="M215.19495,79.3726 L181.01735,79.3726 C180.188612,79.2633851 179.569134,78.5569131 179.569134,77.72101 C179.569134,76.8851069 180.188612,76.1786349 181.01735,76.06942 L215.19495,76.06942 C216.023688,76.1786349 216.643166,76.8851069 216.643166,77.72101 C216.643166,78.5569131 216.023688,79.2633851 215.19495,79.3726 Z" id="Shape" fill="#CCCCCC"></path>
                <path d="M300.78376,287.67839 L181.45181,287.67839 C180.623089,287.569158 180.003632,286.862694 180.003632,286.026805 C180.003632,285.190916 180.623089,284.484452 181.45181,284.37522 L300.78381,284.37522 C301.612531,284.484452 302.231988,285.190916 302.231988,286.026805 C302.231988,286.862694 301.612531,287.569158 300.78381,287.67839 L300.78376,287.67839 Z" id="Shape" fill="#CCCCCC"></path>
                <path d="M300.20448,324.01331 L180.87253,324.01331 C180.043792,323.904095 179.424314,323.197623 179.424314,322.36172 C179.424314,321.525817 180.043792,320.819345 180.87253,320.71013 L300.20453,320.71013 C301.033268,320.819345 301.652746,321.525817 301.652746,322.36172 C301.652746,323.197623 301.033268,323.904095 300.20453,324.01331 L300.20448,324.01331 Z" id="Shape" fill="#CCCCCC"></path>
                <path d="M300.49412,342.18077 L181.16217,342.18077 C180.333432,342.071555 179.713954,341.365083 179.713954,340.52918 C179.713954,339.693277 180.333432,338.986805 181.16217,338.87759 L300.49417,338.87759 C301.322908,338.986805 301.942386,339.693277 301.942386,340.52918 C301.942386,341.365083 301.322908,342.071555 300.49417,342.18077 L300.49412,342.18077 Z" id="Shape" fill="#CCCCCC"></path>
                <path d="M351.47087,324.34363 L317.29328,324.34363 C316.464542,324.234415 315.845064,323.527943 315.845064,322.69204 C315.845064,321.856137 316.464542,321.149665 317.29328,321.04045 L351.47087,321.04045 C352.299608,321.149665 352.919086,321.856137 352.919086,322.69204 C352.919086,323.527943 352.299608,324.234415 351.47087,324.34363 Z" id="Shape" fill="#CCCCCC"></path>
                <path d="M351.47087,342.18077 L317.29328,342.18077 C316.464542,342.071555 315.845064,341.365083 315.845064,340.52918 C315.845064,339.693277 316.464542,338.986805 317.29328,338.87759 L351.47087,338.87759 C352.299608,338.986805 352.919086,339.693277 352.919086,340.52918 C352.919086,341.365083 352.299608,342.071555 351.47087,342.18077 Z" id="Shape" fill="#CCCCCC"></path>
                <path d="M408.81972,324.34363 L374.64212,324.34363 C373.813382,324.234415 373.193904,323.527943 373.193904,322.69204 C373.193904,321.856137 373.813382,321.149665 374.64212,321.04045 L408.81972,321.04045 C409.648458,321.149665 410.267936,321.856137 410.267936,322.69204 C410.267936,323.527943 409.648458,324.234415 408.81972,324.34363 Z" id="Shape" fill="#CCCCCC"></path>
                <path d="M431.41169,305.84585 L243.72455,305.84585 C242.895829,305.736618 242.276372,305.030154 242.276372,304.194265 C242.276372,303.358376 242.895829,302.651912 243.72455,302.54268 L431.41169,302.54268 C432.240411,302.651912 432.859868,303.358376 432.859868,304.194265 C432.859868,305.030154 432.240411,305.736618 431.41169,305.84585 Z" id="Shape" fill="#CCCCCC"></path>
                <path d="M215.33977,305.84585 L181.16217,305.84585 C180.333449,305.736618 179.713992,305.030154 179.713992,304.194265 C179.713992,303.358376 180.333449,302.651912 181.16217,302.54268 L215.33977,302.54268 C216.168491,302.651912 216.787948,303.358376 216.787948,304.194265 C216.787948,305.030154 216.168491,305.736618 215.33977,305.84585 Z" id="Shape" fill="#CCCCCC"></path>
            </g>
            <g id="left-tag" transform="translate(501.000000, 163.000000)">
                <polygon id="Shape" fill="#E6E6E6" points="46.965 0.221 0.622 45.985 46.965 91.748 57.392 81.321 22.345 46.274 57.681 10.938"></polygon>
                <polygon id="Shape" fill="#F9F871" points="46.965 0.221 0.622 45.985 46.965 91.748 57.392 81.321 22.345 46.274 57.681 10.938"></polygon>
            </g>
            <g id="right-tag" transform="translate(605.000000, 163.000000)">
                <polygon id="Shape" fill="#E6E6E6" points="11.32 0.221 57.662 45.985 11.32 91.748 0.893 81.321 35.939 46.274 0.603 10.938"></polygon>
                <polygon id="Shape" fill="#F9F871" points="11.32 0.221 57.662 45.985 11.32 91.748 0.893 81.321 35.939 46.274 0.603 10.938"></polygon>
            </g>
            <g id="Group-4" transform="translate(0.000000, 60.000000)">
                <path d="M470.60292,486.03544 C485.02257,505.34644 514.95492,507.37897 514.95492,507.37897 C514.95492,507.37897 521.50844,478.10217 507.08879,458.79117 C492.66914,439.48017 462.73679,437.44764 462.73679,437.44764 C462.73679,437.44764 456.18327,466.72443 470.60292,486.03544 Z" id="leaf-big" fill="#E6E6E6"></path>
                <path d="M544.05965,493.29504 C534.54455,506.03779 514.79307,507.37899 514.79307,507.37899 C514.79307,507.37899 510.4686,488.06012 519.98369,475.31737 C529.49878,462.57462 549.25027,461.23337 549.25027,461.23337 C549.25027,461.23337 553.57474,480.55226 544.05965,493.29504 Z" id="leaf-small" fill="#E6E6E6"></path>
                <polygon id="Shape" fill="#FFB9B9" points="149.825 400.994 149.825 451.12 135.503 451.12 125.956 398.607"></polygon>
                <polygon id="Shape" fill="#FFB9B9" points="36.445 400.994 36.445 451.12 22.124 451.12 12.576 398.607"></polygon>
                <path d="M111.99768,31.48227 C111.99768,31.48227 88.98368,14.94095 86.10692,22.85201 C83.23016,30.76307 103.36742,45.14684 103.36742,45.14684 L111.99768,31.48227 Z" id="Shape" fill="#FFB9B9"></path>
                <path d="M30.36986,52.69831 C30.36986,81.29646 42.68271,82.18501 62.74113,82.18501 C82.79955,82.18501 103.00783,81.29646 103.00783,52.69831 C103.00783,24.10016 86.74727,0.91679 66.68883,0.91679 C46.63039,0.91679 30.36986,24.10016 30.36986,52.69831 Z" id="Shape" fill="#2F2E41"></path>
                <path d="M79.63423,52.33872 C79.63423,52.33872 76.75747,73.91435 90.42204,75.35272 C104.08661,76.79109 45.8324,81.10622 45.8324,81.10622 C45.8324,81.10622 60.93534,67.44165 53.02428,56.65383 C45.11322,45.86601 79.63423,52.33872 79.63423,52.33872 Z" id="Shape" fill="#FFB9B9"></path>
                <path d="M152.2722,437.8234 L157.30651,480.25548 C157.30651,480.25548 182.47809,511.18056 166.65595,509.02299 C150.83381,506.86542 140.76519,509.48175 140.76519,506.60499 C140.76519,503.72823 140.39319,493.44999 138.2356,493.44999 C136.07801,493.44999 134.2925,509.68012 134.2925,509.68012 C134.2925,509.68012 127.81981,509.19031 127.10062,508.47112 C126.38143,507.75193 125.66225,466.59095 125.66225,466.59095 C125.66225,466.59095 123.50468,454.36476 127.81981,448.61125 C132.13494,442.85774 131.41575,437.82344 131.41575,437.82344 L152.2722,437.8234 Z" id="Shape" fill="#2F2E41"></path>
                <path d="M37.69897,437.35681 L42.73328,479.78889 C42.73328,479.78889 67.90486,510.71397 52.08273,508.5564 C36.2606,506.39883 26.19196,509.01516 26.19196,506.1384 C26.19196,503.26164 25.81996,492.9834 23.66238,492.9834 C21.5048,492.9834 19.71927,509.21353 19.71927,509.21353 C19.71927,509.21353 13.24658,508.72372 12.52739,508.00453 C11.8082,507.28534 11.08902,466.12436 11.08902,466.12436 C11.08902,466.12436 8.93146,453.89817 13.24658,448.14466 C17.5617,442.39115 16.84252,437.35685 16.84252,437.35685 L37.69897,437.35681 Z" id="Shape" fill="#2F2E41"></path>
                <path d="M114.87442,185.38847 C114.87442,185.38847 137.88842,250.83456 139.32681,265.21832 C140.7652,279.60208 137.88843,328.50685 137.88843,328.50685 C137.88843,328.50685 158.74488,413.00541 154.42975,413.7246 C150.11462,414.44379 126.08415,417.85349 125.36497,414.2576 C124.64579,410.66171 122.08182,405.09439 122.80097,402.93683 C123.52012,400.77927 120.64342,392.86815 120.64342,388.55304 C120.64342,384.23793 110.55926,361.58951 111.27842,357.99357 C111.99758,354.39763 99.05223,301.17773 96.89466,296.86257 C94.73709,292.54741 88.9836,262.34157 88.9836,262.34157 C88.9836,262.34157 56.62014,350.80168 55.90096,352.95924 C55.18178,355.1168 52.30502,358.71275 53.74339,359.43193 C55.18176,360.15111 51.58583,365.18544 51.58583,365.18544 C51.58583,365.18544 44.13352,395.02572 44.13352,396.4641 C44.13352,397.90248 45.5719,414.18336 42.69515,414.90255 C39.8184,415.62174 10.43373,415.57583 8.99535,410.54155 C7.55697,405.50727 24.25669,347.20578 24.25669,347.20578 C24.25669,347.20578 36.48289,310.5272 32.88695,301.17778 C29.29101,291.82836 36.48289,235.73168 39.35964,231.41656 C42.23639,227.10144 42.95558,201.21067 42.95558,201.21067 L114.87442,185.38847 Z" id="Shape" fill="#2F2E41"></path>
                <circle id="Oval" fill="#FFB9B9" cx="67.04844" cy="41.1913" r="23.01401"></circle>
                <path d="M79.63423,70.31841 C79.63423,70.31841 53.74346,71.0376 52.30509,68.88004 C50.86672,66.72248 14.90732,73.91435 14.90732,88.29811 C14.90732,102.68187 35.76377,158.77852 35.76377,158.77852 C35.76377,158.77852 43.67483,199.05303 41.51727,203.36816 C39.35971,207.68329 121.34712,194.01872 119.18956,186.82684 C117.032,179.63496 104.8058,163.81284 120.62793,150.14826 C136.45006,136.48368 142.92276,122.09994 142.92276,122.09994 L124.22387,72.47594 C124.22387,72.47594 105.52499,69.59918 101.20987,72.47594 C96.89475,75.3527 79.63423,70.31841 79.63423,70.31841 Z" id="Shape" fill="#F9F871"></path>
                <path d="M137.88842,125.69588 L142.92274,122.09994 C142.92274,122.09994 189.66994,73.19516 177.44374,63.84572 C165.21754,54.49628 147.23788,45.86604 138.60763,45.14684 C129.97738,44.42764 122.7855,37.95496 122.7855,37.95496 C122.7855,37.95496 113.43605,21.41364 106.24418,32.20146 C99.05231,42.98928 91.14123,46.58521 101.20986,50.18115 C111.27849,53.77709 117.75118,52.33872 122.7855,55.93466 C127.81982,59.5306 147.23788,65.2841 138.60763,67.44166 C133.658733,68.6412409 128.840674,70.3275626 124.22387,72.47598 L114.87442,89.0173 L137.88842,125.69588 Z" id="Shape" fill="#F9F871"></path>
                <path d="M56.62021,247.23862 C56.62021,247.23862 75.3191,274.56776 61.65453,273.12938 C47.98996,271.691 41.51727,252.99212 41.51727,252.99212 L56.62021,247.23862 Z" id="Shape" fill="#FFB9B9"></path>
                <path d="M19.94163,84.70217 L14.90732,88.29811 C14.90732,88.29811 -1.634,178.91578 14.90732,202.64897 C31.44864,226.38216 32.88702,224.9438 32.88702,224.9438 C32.88702,224.9438 35.76377,222.78623 37.20214,237.16999 C38.64051,251.55375 36.48296,257.30725 40.79808,257.30725 C45.1132,257.30725 64.53128,252.99212 63.09291,249.39618 C61.65454,245.80024 52.30509,224.9438 51.58591,219.90948 C50.86673,214.87516 47.27078,203.36816 45.83241,196.89548 C44.39404,190.4228 52.3051,186.82685 48.70916,173.16228 C45.11322,159.49771 40.0789,135.04533 40.0789,130.01101 C40.0789,124.97669 19.94163,84.70217 19.94163,84.70217 Z" id="Shape" fill="#F9F871"></path>
                <path d="M44.75362,20.69445 C44.75362,28.43978 55.37933,34.71861 68.48681,34.71861 C81.59429,34.71861 93.65839,38.86801 93.65839,31.12267 C93.65839,23.37733 81.5943,6.67029 68.48681,6.67029 C55.37932,6.67029 44.75362,12.94912 44.75362,20.69445 Z" id="Shape" fill="#2F2E41"></path>
                <path d="M102.79228,57.55204 C102.79228,57.55204 103.761,83.62342 77.85328,82.18504 C51.94556,80.74666 81.35441,59.89964 81.35441,59.89964 L102.79228,57.55204 Z" id="Shape" fill="#2F2E41"></path>
                <rect id="Rectangle-path" fill="#3F3D56" x="0" y="507.37896" width="702.90551" height="2.24072"></rect>
            </g>
        </g>
    </g>
</svg>